<?xml version="1.0" encoding="UTF-8" standalone="no"?>
<svg
   xmlns:dc="http://purl.org/dc/elements/1.1/"
   xmlns:cc="http://creativecommons.org/ns#"
   xmlns:rdf="http://www.w3.org/1999/02/22-rdf-syntax-ns#"
   xmlns:svg="http://www.w3.org/2000/svg"
   xmlns="http://www.w3.org/2000/svg"
   version="1.1"
   id="svg2"
   viewBox="0 0 575.37007 346.66964"
   height="97.837875mm"
   width="162.38222mm">
  <defs
     id="defs4" />
  <metadata
     id="metadata7">
    <rdf:RDF>
      <cc:Work
         rdf:about="">
        <dc:format>image/svg+xml</dc:format>
        <dc:type
           rdf:resource="http://purl.org/dc/dcmitype/StillImage" />
        <dc:title></dc:title>
      </cc:Work>
    </rdf:RDF>
  </metadata>
  <g
     style="display:inline"
     transform="translate(-71.736112,-255.79915)"
     id="layer1">
    <path
       id="path3347"
       d="m 587.33083,368.26717 c -19.5188,-1.71603 -36.4523,-20.45255 -34.7006,-39.27463 -1.2996,-4.73268 2.4231,-14.09419 7.4552,-20.3589 9.8879,-11.77132 27.3563,-22.15922 45.0067,-15.33004 8.8611,1.38884 13.9373,7.4033 18.2351,13.91 8.2308,7.62814 10.2149,23.2384 5.6239,33.62531 -4.8682,18.30838 -23.0831,28.83963 -41.6203,27.42826 z m 9.2556,-7.03291 c 6.8287,-2.56261 18.8585,-6.45193 9.7111,-8.01024 -10.737,2.43935 -9.4751,-20.92058 -22.7423,-17.56901 2.02681,3.40121 -1.38581,37.91351 -15.25304,19.69469 3.40395,-16.96082 -4.96814,-47.59582 22.73786,-48.43238 0.21753,-0.007 0.42788,0.0931 0.64505,0.14358 16.13859,-0.52937 28.85523,20.21417 9.92513,26.75991 8.7068,6.12972 9.235,24.43482 17.9829,12.19218 3.5279,-5.95845 9.301,-28.84322 -3.9081,-38.38813 -9.748,-11.756 -29.1528,-12.33476 -41.7363,-3.43949 -13.5807,7.47577 -17.7918,28.78257 -10.7096,39.935 4.7441,11.54739 16.2702,17.39142 28.3068,17.52319 l 5.0404,-0.40933 z m -2.7339,-34.68518 c 21.9598,-7.5372 -20.9267,-16.61552 -7.2888,0.47443 l 2.6084,-7e-5 z"
       style="fill:#d40000" />
  </g>
  <g
     style="display:inline"
     id="g3352"
     transform="translate(-71.736112,-255.79915)">
    <path
       style="fill:#d40000"
       d="m 110.63425,593.67415 c -8.82529,-13.64066 -33.686528,-21.58004 -38.898138,-32.13443 25.39807,1.36586 45.544898,-16.85965 69.315418,-23.32542 22.15671,-3.86833 26.42684,-26.10799 14.09654,-42.83128 -10.58462,-20.01778 -12.48697,-44.62599 -11.73235,-66.43203 2.90765,-10.37339 -4.35497,-25.67225 -8.32234,-9.95244 -20.78354,-5.68623 -7.47717,-35.47044 12.22069,-23.93159 19.59304,-8.95531 34.89177,9.06141 31.18324,28.34177 -5.70176,15.46955 13.66968,9.02833 25.62737,13.38688 27.67045,7.94208 -1.05147,39.98675 -15.6331,14.4893 -21.55788,5.03437 -24.63039,32.34362 -19.60863,50.40806 1.03923,21.09756 19.46555,18.40254 29.01072,8.85831 19.25586,3.38778 52.72347,-12.88993 61.39808,8.84697 -19.01647,-8.17698 -29.9785,16.47744 -41.18624,21.5183 -8.89745,12.22245 -29.42728,18.29373 -44.3738,24.84579 -20.88891,8.91885 -42.6825,16.09266 -61.41713,28.90936 l -1.68031,-0.99753 z"
       id="path3354" />
  </g>
  <g
     style="display:inline"
     transform="translate(-71.736112,-255.79915)"
     id="g3356">
    <path
       id="path3358"
       d="m 529.18996,602.46879 c -30.5241,-0.83887 -61.0559,-4.38589 -89.6083,-15.88893 -17.67765,-8.17145 -43.08633,-15.50078 -47.29503,-37.54617 -16.35072,2.86014 -16.83448,-13.6411 -18.67607,-23.75876 -7.29589,14.78731 -15.71353,29.52148 -28.04321,38.57824 -15.40146,15.11351 -43.98385,-2.76939 -32.78336,-22.98209 12.08881,-19.73125 35.58704,-37.9081 29.61152,-64.02511 1.04233,-13.34306 -26.29481,-13.58122 -10.26914,-5.43041 -18.7803,23.84374 -29.96897,-31.1812 -1.48369,-18.79187 25.31101,5.55677 31.57508,32.11247 16.74588,51.3852 -2.51391,9.78994 -35.26856,36.88658 -10.13273,29.5709 19.42598,-22.3708 29.16093,-50.48523 43.56914,-75.88876 2.34415,-8.13259 8.25413,-14.62089 9.48863,-23.51723 7.21362,-11.20118 14.44572,-24.47562 18.12608,-37.45903 6.63384,-5.55876 9.14465,-27.71935 16.61364,-37.5663 7.8986,-9.08016 10.49569,-18.30207 10.69564,-30.93389 2.195,-15.26223 11.3773,-21.64299 20.3494,-33.90701 11.3359,-11.57291 -9.376,-51.87852 17.7275,-34.0027 16.5771,10.27849 23.1409,37.52807 0.2727,45.82422 -13.0474,8.29145 -26.4981,23.0512 -20.5894,39.34764 7.2625,23.81155 35.6346,13.33268 52.7015,21.68316 20.6821,20.90557 -20.1468,36.9837 -29.5954,53.72911 9.2256,18.48486 44.5162,2.71518 58.8389,22.14909 20.1838,12.03185 15.5413,39.88514 14.6752,55.23168 24.7119,0.45781 56.1553,1.12713 70.8742,24.54605 -20.607,-4.35556 -44.1851,-4.45773 -66.1281,-3.40053 -29.7462,-2.79388 -44.2002,27.77005 -62.7367,45.62591 -19.8673,23.38381 28.8275,10.5951 41.6877,17.34762 14.168,3.39663 29.1106,7.2388 40.554,16.76994 -12.3129,3.38684 -30.7471,2.68684 -45.1905,3.31003 z m -57.9407,-31.89856 c 11.509,-10.4761 39.8839,-45.17183 4.213,-36.18279 -17.2907,0.7319 -45.29089,32.10495 -14.984,37.27146 3.5893,0.35435 7.4644,0.93742 10.771,-1.08867 z m -36.96924,-8.62612 c 6.17134,-11.08911 -2.24783,-26.02254 -14.37238,-16.90925 -5.55464,7.303 7.09293,18.70615 14.37238,16.90925 z m -40.64779,-49.07352 c 12.88909,-4.86196 17.58699,-23.90157 27.82949,-33.63911 14.96374,-19.6725 30.21134,-37.10771 43.19184,-58.1849 5.9258,-14.87671 30.4633,-29.37235 22.0574,-45.64969 -15.8911,-5.68905 -35.9118,-0.65267 -46.4392,-18.13654 -10.20689,8.1772 -13.94448,24.51094 -20.05542,36.68216 -4.92229,13.07707 -11.7772,27.90679 -16.52049,42.04891 -6.91728,19.98613 -16.47858,39.05962 -20.66563,59.70753 -0.7751,6.44035 2.0806,18.70564 10.60201,17.17164 z m 45.96243,-2.20266 c 11.6286,-11.79835 0.5048,-42.69438 -12.81229,-16.76993 -11.03565,15.56431 -4.10548,19.62621 12.81229,16.76993 z m 56.8678,-10.18122 c 20.9495,3.81128 39.2551,-10.48758 33.8108,-32.79184 -6.9604,-18.51171 -34.3146,-15.06078 -49.9406,-9.93357 -8.1983,7.44206 16.8624,21.5725 1.8464,33.87409 -10.1829,9.55421 9.2721,10.18875 14.2834,8.85132 z M 362.64397,403.67958 c -15.3829,-5.28859 23.34815,-31.18938 -2.97135,-29.56717 -15.40036,7.7298 -47.50819,-26.78731 -23.97703,-26.80315 17.10077,10.98177 47.28977,-2.14911 55.49311,21.43928 5.77298,14.16446 -20.37048,26.66437 -28.54473,34.93104 z"
       style="fill:#d40000" />
  </g>
</svg>
