<?xml version="1.0" encoding="UTF-8" standalone="no"?>
<!-- Created with Inkscape (http://www.inkscape.org/) -->

<svg
   xmlns:dc="http://purl.org/dc/elements/1.1/"
   xmlns:cc="http://creativecommons.org/ns#"
   xmlns:rdf="http://www.w3.org/1999/02/22-rdf-syntax-ns#"
   xmlns:svg="http://www.w3.org/2000/svg"
   xmlns="http://www.w3.org/2000/svg"
   xmlns:xlink="http://www.w3.org/1999/xlink"
   xmlns:sodipodi="http://sodipodi.sourceforge.net/DTD/sodipodi-0.dtd"
   xmlns:inkscape="http://www.inkscape.org/namespaces/inkscape"
   width="600"
   height="800"
   viewBox="0 0 599.99999 800.00001"
   id="svg2"
   version="1.1"
   inkscape:version="0.91 r13725"
   sodipodi:docname="Мой силуэт.svg">
  <defs
     id="defs4">
    <linearGradient
       inkscape:collect="always"
       id="linearGradient4173">
      <stop
         style="stop-color:#626262;stop-opacity:1;"
         offset="0"
         id="stop4175" />
      <stop
         style="stop-color:#626262;stop-opacity:0;"
         offset="1"
         id="stop4177" />
    </linearGradient>
    <linearGradient
       inkscape:collect="always"
       xlink:href="#linearGradient4173"
       id="linearGradient4179"
       x1="57.750933"
       y1="528.64376"
       x2="-22.431772"
       y2="217.15915"
       gradientUnits="userSpaceOnUse" />
  </defs>
  <sodipodi:namedview
     id="base"
     pagecolor="#ffffff"
     bordercolor="#666666"
     borderopacity="1.0"
     inkscape:pageopacity="0.0"
     inkscape:pageshadow="2"
     inkscape:zoom="0.8925"
     inkscape:cx="300"
     inkscape:cy="400"
     inkscape:document-units="px"
     inkscape:current-layer="layer1"
     showgrid="false"
     fit-margin-top="0"
     fit-margin-left="0"
     fit-margin-right="0"
     fit-margin-bottom="0"
     units="px"
     inkscape:window-width="1280"
     inkscape:window-height="937"
     inkscape:window-x="0"
     inkscape:window-y="26"
     inkscape:window-maximized="1" />
  <metadata
     id="metadata7">
    <rdf:RDF>
      <cc:Work
         rdf:about="">
        <dc:format>image/svg+xml</dc:format>
        <dc:type
           rdf:resource="http://purl.org/dc/dcmitype/StillImage" />
        <dc:title></dc:title>
      </cc:Work>
    </rdf:RDF>
  </metadata>
  <g
     inkscape:label="Layer 1"
     inkscape:groupmode="layer"
     id="layer1"
     transform="translate(-57.932993,-128.59602)">
    <path
       style="fill:url(#linearGradient4179);fill-opacity:1;stroke:#7fd281;stroke-width:3.39687538;stroke-linejoin:round;stroke-miterlimit:4;stroke-dasharray:none;stroke-opacity:1;"
       d="m 59.631524,837.18892 c 0.711941,-30.10792 -1.541876,-61.93816 1.318036,-90.88718 31.983499,-4.6129 55.62723,-17.78466 83.80402,-25.54147 37.43092,-12.36546 87.81201,-39.33615 84.91944,-78.66886 12.2389,-44.26209 -14.20285,-90.1691 -39.52788,-116.01632 -3.85805,-6.69106 -24.63295,-37.62696 -26.44251,-45.2393 -22.05946,-14.70914 0.69956,-44.32988 -18.0277,-61.86516 -2.63821,-17.29538 -5.39122,-34.4033 -8.45517,-52.94847 -0.41616,-28.54276 -6.70125,-57.67749 -3.32262,-85.97813 7.87496,-19.53475 14.66165,-41.36645 29.60573,-56.45237 21.9508,-11.73513 25.00635,-42.99428 48.93569,-51.42238 24.06002,-16.7399 51.06742,-29.61366 80.52672,-32.31325 34.73709,-11.68193 73.79577,-12.40997 109.02881,-2.94734 19.33905,10.662 40.83565,13.87322 61.12276,21.04846 20.49422,18.27337 48.0565,34.11906 54.62842,62.90051 8.43522,12.42611 19.95165,25.14143 20.43863,40.49971 -3.74347,4.01941 -7.57602,1.8746 -12.06964,-10.04824 -16.50099,-13.46943 3.87751,21.6584 9.67287,26.39127 7.21456,16.12717 14.49362,33.93841 8.46237,51.43737 -10.66535,16.42103 -4.50207,44.99712 -13.27259,65.60957 -6.94943,23.49872 -1.35553,50.2301 -4.87722,74.07237 -2.1139,17.15299 -3.38773,27.00288 -14.75454,40.92264 -26.25211,17.917 -27.08911,48.27785 -35.22667,75.60616 0.0178,19.21978 -4.2101,43.03968 0.67903,59.93119 18.15415,18.096 31.7135,41.38642 54.47044,55.97511 33.85738,11.99341 63.65589,33.52647 98.53005,43.35783 35.72404,1.805 25.91496,35.99217 26.42523,62.52042 0.0209,39.9215 0.007,79.84301 0.0113,119.76452 l -596.603049,0 c 6.2e-5,-29.90288 -1.24e-4,-59.8058 9.3e-5,-89.70866 z"
       id="path3347"
       inkscape:connector-curvature="0"
       sodipodi:nodetypes="ccccccccccccccccccccccccccccccc" />
  </g>
</svg>
