<?xml version="1.0" encoding="UTF-8" standalone="no"?>
<svg
   xmlns:dc="http://purl.org/dc/elements/1.1/"
   xmlns:cc="http://creativecommons.org/ns#"
   xmlns:rdf="http://www.w3.org/1999/02/22-rdf-syntax-ns#"
   xmlns:svg="http://www.w3.org/2000/svg"
   xmlns="http://www.w3.org/2000/svg"
   version="1.1"
   id="svg2"
   viewBox="0 0 603.79491 449.44806"
   height="126.84423mm"
   width="170.40434mm">
  <title
     id="title4249">Fohroer logo</title>
  <defs
     id="defs4" />
  <metadata
     id="metadata7">
    <rdf:RDF>
      <cc:Work
         rdf:about="">
        <dc:format>image/svg+xml</dc:format>
        <dc:type
           rdf:resource="http://purl.org/dc/dcmitype/StillImage" />
        <dc:title>Fohroer logo</dc:title>
        <dc:date>2015</dc:date>
        <dc:creator>
          <cc:Agent>
            <dc:title>Fohroer</dc:title>
          </cc:Agent>
        </dc:creator>
        <dc:rights>
          <cc:Agent>
            <dc:title>Fohroer</dc:title>
          </cc:Agent>
        </dc:rights>
        <dc:publisher>
          <cc:Agent>
            <dc:title>http://sozidation.ru</dc:title>
          </cc:Agent>
        </dc:publisher>
        <dc:language>ru</dc:language>
        <dc:description>Нуль в шляпе.</dc:description>
        <cc:license
           rdf:resource="http://creativecommons.org/licenses/by-nc-sa/3.0/" />
      </cc:Work>
      <cc:License
         rdf:about="http://creativecommons.org/licenses/by-nc-sa/3.0/">
        <cc:permits
           rdf:resource="http://creativecommons.org/ns#Reproduction" />
        <cc:permits
           rdf:resource="http://creativecommons.org/ns#Distribution" />
        <cc:requires
           rdf:resource="http://creativecommons.org/ns#Notice" />
        <cc:requires
           rdf:resource="http://creativecommons.org/ns#Attribution" />
        <cc:prohibits
           rdf:resource="http://creativecommons.org/ns#CommercialUse" />
        <cc:permits
           rdf:resource="http://creativecommons.org/ns#DerivativeWorks" />
        <cc:requires
           rdf:resource="http://creativecommons.org/ns#ShareAlike" />
      </cc:License>
    </rdf:RDF>
  </metadata>
  <g
     transform="translate(-56.030504,-272.7206)"
     style="display:inline"
     id="g4172">
    <path
       id="path4174"
       d="m 453.24023,273.22461 c -15.91359,0.87403 -32.23916,0.34043 -47.42968,6.23633 -14.83255,5.61081 -30.30537,11.14122 -43.33594,20.15429 -16.87197,15.41844 -27.79356,35.80322 -40.95117,54.20118 -23.24776,12.52057 -31.34063,40.15564 -34.07813,64.65039 6.22403,19.05099 17.4203,42.43227 35.85742,55.20508 4.24222,2.93891 2.24367,-10.08045 2.88477,-15.21094 2.70819,-10.94369 -13.22359,-14.92757 -16.18555,-25.42188 -8.61543,-15.25707 -10.99765,-38.34088 3.30078,-50.98828 13.59214,-8.07687 30.66579,-5.00337 45.77539,-4.56055 15.98506,1.36809 31.95152,3.84426 48.03907,3.22461 20.67199,-12.85654 42.17562,1.04312 56.74023,0.47461 18.25989,-5.31539 6.78564,0.21406 26.57031,0.40821 26.70237,-1.31636 44.56044,0.0846 71.03516,2.30273 16.52732,3.57375 11.39069,23.90501 5.48633,34.46484 -7.28447,11.22202 -13.65935,28.16785 -23.52344,36.32032 -1.10546,8.58992 -11.1779,13.70316 -6.19989,17.24166 11.24879,7.99594 25.81234,-15.28685 32.19208,-26.03659 7.81728,-15.12887 15.3776,-30.76726 19.22461,-47.39453 1.78477,-20.93895 -24.4757,-31.39539 -22.63672,-52.48632 -13.07535,-21.94518 -30.82629,-41.89746 -53.0918,-54.69922 -19.11637,-8.06914 -38.3621,-18.32193 -59.67383,-18.08594 z m -1.88671,13.78516 c 22.90355,0.0245 43.60595,11.2353 63.52539,21.26171 2.82412,4.95265 -16.15203,-2.94793 -22.06836,-1.16601 -30.27296,-2.29445 -60.96767,-0.16962 -90.9336,-5.63477 -8.00129,-7.15347 14.06878,-10.00072 19.65039,-11.71093 9.86721,-1.91759 19.85624,-1.82774 29.82618,-2.75 z m -72.5879,24.97851 c 10.39275,0.90832 20.16143,5.45547 30.78321,5.56641 29.95411,2.75063 60.29215,0.099 90.03711,5.17383 20.42543,1.11073 44.96988,8.59341 53.10742,29.36718 4.82014,8.83732 0.49024,16.97115 -9.56055,13.56055 -27.21438,-1.28613 -54.4366,-5.90474 -81.69726,-2.99023 -22.71289,-0.53539 -45.42812,1.10367 -67.95899,3.89648 -17.13627,-6.58809 -36.74903,2.18754 -53.46094,-5.79297 -9.42264,-9.09018 9.35256,-19.62856 12.10157,-29.53515 6.22086,-9.10456 14.61374,-19.15137 26.64843,-19.2461 z"
       style="fill:#169361;fill-opacity:1;stroke:#000000;stroke-opacity:1" />
  </g>
  <g
     transform="translate(-56.030504,-272.7206)"
     style="display:inline"
     id="layer1">
    <path
       id="path3369"
       d="m 464.33594,375.42578 c -17.16267,0.24053 -39.21884,9.2975 -51.65039,6.96484 -10.65809,1.57198 -28.01474,3.33224 -33.9043,8.74415 -57.49358,26.17071 -63.5561,91.6378 -46.48047,147.00781 -4.74011,6.70131 -13.22466,-40.88215 -31.33984,-37.1543 -22.41331,6.93914 -5.23902,-20.7808 -25.08008,-21.91406 -14.14139,14.75306 -24.33786,3.90604 -38.86914,4.38281 -19.1466,6.62284 -37.37893,28.59158 -52.02734,32.74414 -14.47928,10.81609 -32.79721,11.01798 -44.80665,24.11914 -16.8782,10.19875 -27.88464,21.05683 -39.90039,39.52344 1.88834,17.8446 -15.542511,20.45178 -18.294918,36.69141 -14.648952,19.41136 -18.283447,43.24792 -23.667969,66.60742 -9.926888,32.12483 23.973108,20.9179 42.871097,25.62695 35.43687,0.66577 70.97277,6.57526 106.26953,0.44336 33.98322,-1.76024 67.62667,-6.27728 100.89062,-13.59375 30.65293,-3.71153 58.00287,-18.21684 86.77149,-28.06445 20.60554,-3.35941 42.32511,-30.30984 61.75781,-10.43555 23.14142,14.04288 49.79945,23.14637 74.41602,34.46875 21.48359,10.06574 45.5404,8.27225 68.04296,13.94727 17.22227,6.79699 35.14301,7.84186 51.0293,15.51367 3.74226,2.53719 11.55675,-3.27305 8.11133,-7.28321 -11.79605,-19.05051 -40.23063,-18.63939 -59.74414,-27.58984 -32.07717,-8.6422 -62.95193,-20.62928 -93.82617,-32.90234 -12.47212,-9.25697 -62.48229,-16.48681 -32.14844,-33.35352 18.77761,-15.65886 31.50752,-36.49166 47.37695,-54.82812 17.48765,-32.20792 30.55536,-73.3642 24.56641,-107.84961 -0.0405,-0.53655 -0.2612,-1.00072 -0.38086,-1.50391 -0.28156,-1.18404 -1.00045,-1.83106 -0.79102,-3.56445 -0.14593,-0.30831 -0.29992,-0.61278 -0.43554,-0.92578 -0.0628,-0.14504 -0.009,-0.31658 -0.0117,-0.47461 10e-4,-0.1485 0.006,-0.29811 0.008,-0.44727 -4.57585,-8.69007 -8.07117,-32.11193 -16.93164,-35.6875 16.446,-12.32183 -63.78701,-48.67287 -43.31378,-50.44633 -3.20443,-1.4304 -12.85318,11.32265 -16.862,11.2393 l -0.002,0 c -0.54234,-0.0112 -1.08961,-0.0136 -1.64258,-0.006 z m -21.60547,28.47266 c 18.54673,-0.21756 36.96984,3.52328 52.96289,12.82812 20.89954,14.67555 42.44114,38.81352 35.68359,66.36524 -6.7159,25.16651 -8.02969,53.33118 -25.21484,74.14648 -16.83488,20.56303 -29.62684,46.69967 -54.15625,58.79297 -11.13601,12.39418 -0.99811,-11.73839 0.29687,-14.50586 13.19445,-20.4449 25.93709,-41.0291 39.32032,-61.36133 15.14414,-24.56427 20.6357,-54.64358 10.79297,-82.26367 -6.77125,-29.90401 -39.46216,-44.25924 -67.45313,-35.86719 -26.30111,2.49747 -39.47936,30.31306 -46.59766,52.58008 -14.04141,25.97126 -7.69882,57.85665 5.23829,83.15625 4.38213,19.83022 28.5785,34.57659 27.55664,53.67774 -25.03159,-14.91831 -44.62475,-38.20963 -59.35352,-63.10938 -16.21154,-22.16642 -19.74572,-50.77737 -13.15625,-76.98633 3.00319,-26.55986 20.23688,-50.50245 46.27734,-58.73828 14.97748,-5.24935 31.43798,-8.52288 47.80274,-8.71484 z m 6.69531,29.47461 c 21.95362,0.54214 42.60638,18.20238 40.08008,42.69336 -2.64487,25.35202 -7.04431,52.04792 -22.39453,72.9707 -1.30251,-1.95297 -1.44375,7.22315 -3.90235,5.40625 7.90034,-21.14184 18.09733,-42.07477 16.9375,-65.42383 6.14652,-33.441 -47.85626,-42.37658 -61.55273,-15.92969 -7.43,5.45712 -20.76356,53.50172 -18.66797,25.69532 0.0761,-23.07703 7.96001,-46.53334 27.92383,-59.86719 6.79693,-4.00443 14.2583,-5.72564 21.57617,-5.54492 z m -4.96094,39.40625 c 13.17256,0.1031 25.94459,19.05006 19.17774,36.23047 -7.13246,25.20717 -16.62437,49.85949 -28.50586,73.42578 -2.23597,9.19974 -6.00996,-1.28216 -6.69727,-4.22266 -5.36971,-30.13174 -16.00505,-62.95478 -0.38672,-91.95898 4.35564,-9.6761 10.42459,-13.52148 16.41211,-13.47461 z m -176.75195,24.68164 c 6.04265,-0.40612 14.44043,12.57517 15.44531,22.96094 11.51894,27.49022 29.59238,51.1685 48.36133,73.97851 3.90786,5.70755 -0.87205,0.44955 -3.89258,-0.2207 -24.34749,-26.60009 -48.71465,-54.19597 -65.77929,-86.36524 0.85882,-7.21753 3.11857,-10.16891 5.86523,-10.35351 z m -33.20312,2.15625 c 16.99576,-0.0852 24.97029,34.34105 39.72656,46.85351 14.85697,19.93421 30.46411,39.73223 48.36133,57.21485 15.31724,16.99612 34.64325,28.21268 54.01367,39.67578 -9.85505,4.46516 -21.83894,-1.71976 -30.47656,-6.70899 -33.50149,-19.85481 -61.76082,-47.20952 -87.50196,-76.16796 -7.46242,-18.50951 -43.26377,-42.78268 -24.12304,-60.86719 z m 60.76171,14.25781 c 5.76702,0.0792 22.96431,15.56468 22.83594,26.32617 13.44227,25.44742 34.29612,46.17433 48.14649,71.46485 14.01582,18.82457 -15.18422,-12.12558 -18.92383,-13.85938 -16.94201,-23.08422 -36.95112,-44.25679 -48.98047,-70.67773 -5.98447,-9.65603 -5.89458,-13.29258 -3.07813,-13.25391 z m -84.53515,4.5918 c 0.19937,-0.008 0.40367,-0.002 0.61133,0.0195 6.34306,0.65791 16.39434,14.93949 20.71289,23.07812 22.46032,31.36849 48.85673,60.47266 79.72851,83.92188 5.60633,4.69359 11.46762,9.14333 16.75196,14.20117 -33.88644,-4.07555 -60.4357,-28.64001 -82.34961,-53.08203 -15.46752,-15.86625 -33.33118,-35.68388 -40.40039,-55.09961 -0.0653,-9.34799 1.95477,-12.91374 4.94531,-13.03906 z m -27.5918,16.27539 c 0.27006,-0.006 0.54197,-0.002 0.81445,0.0137 4.56732,0.2642 9.39656,3.62302 11.875,11.72656 19.35902,19.96412 36.25883,42.17496 55.93555,61.71289 17.16552,18.34817 39.31346,30.14639 61.375,40.94531 -15.32139,-4.51985 -36.28814,-3.59226 -52.27734,-11.87109 -29.85065,-24.17388 -62.76582,-47.70497 -82.02735,-81.68359 -11.01024,-10.23217 -4.06726,-20.66048 4.30469,-20.84375 z m -26.20703,12.9414 c 0.47931,-0.005 0.97361,0.008 1.48438,0.0391 20.09575,30.09444 45.36633,56.33632 73.46289,79.11914 9.98792,10.57974 -12.6758,-5.12734 -14.59375,-4.71289 -23.05311,-13.63451 -40.87753,-34.55063 -61.08008,-51.49024 -13.89749,-6.01208 -14.13191,-22.81379 0.72656,-22.95508 z m -25.66211,17.76172 c 29.99682,16.4631 49.0115,47.54136 78.41016,65.25977 l 2.07812,1.7539 -2.63086,-0.44921 c -22.91129,-8.95867 -47.24948,-14.55794 -69.27929,-25.53907 -24.99162,-6.42791 -30.21427,-26.70612 -8.57813,-41.02539 z m -28.79297,48.38281 c 24.40535,8.37519 51.29833,8.6624 73.34961,23.66797 -17.13303,1.59839 -35.42171,-5.87766 -52.99023,-6.43945 -14.41103,4.75846 -45.098968,-6.04807 -20.35938,-17.22852 z m -1.32226,30.08594 c 23.45748,-0.16015 46.96707,3.69657 69.90625,8.24024 27.65151,3.89586 55.14048,7.22764 82.01367,15.1875 39.52603,1.54113 78.97902,-5.59561 118.40039,-7.5918 -20.49162,12.66541 -45.41141,16.2778 -68.18359,23.74805 -35.71563,7.10369 -72.26981,10.66412 -108.57422,13.13867 -34.26605,-1.03449 -68.67765,1.83789 -102.802738,-2.32227 -33.691819,4.50159 -19.020512,-35.2089 -6.982422,-49.60742 5.400004,-0.50579 10.809363,-0.75601 16.22266,-0.79297 z"
       style="fill:#0b3fe8;fill-opacity:1;stroke:#000000;stroke-opacity:1" />
  </g>
  <g
     transform="translate(-56.030504,-272.7206)"
     style="display:inline"
     id="g4199">
    <path
       id="path4201"
       d="m 406.00586,383.33789 c 5.05016,16.20454 9.84698,31.29536 14.39453,45.33399 -16.75201,9.06385 -30.919,25.2378 -37.4707,45.21679 -14.04141,25.97126 -2.26328,58.58126 10.67383,83.88086 8.59161,-8.26059 16.64646,-15.89756 24.34179,-23.11719 -0.6066,-15.1689 2.14055,-32.55769 10.10742,-48.39843 2.26993,-5.04266 5.00659,-8.48881 7.95313,-10.63868 4.00136,11.70222 7.74879,22.37946 11.24219,32.07227 3.99202,-3.59025 7.81559,-6.98747 11.50586,-10.23047 -2.94885,-7.64209 -6.14464,-15.61134 -9.58789,-23.85351 7.06856,2.39579 13.3055,9.78097 15.50195,18.6875 5.53427,-4.79579 10.67348,-9.13799 15.50781,-13.13282 -3.08178,-15.57083 -21.3513,-23.24065 -37.69531,-21.17382 -2.74807,-6.27216 -5.63735,-12.67521 -8.64649,-19.16993 25.35726,-7.19475 54.98893,3.02913 55.75586,32.70703 5.01409,-3.98003 9.6613,-7.54482 13.83985,-10.57812 -0.31948,-1.01723 -0.65338,-2.03194 -1.01367,-3.04297 -17.43042,-36.4017 -48.39278,-43.31463 -74.93946,-32.56055 -6.60705,-13.72282 -13.7646,-27.79497 -21.4707,-42.00195 z m 97.42383,77.60547 c 8.40824,26.77221 2.78315,55.5556 -11.80664,79.2207 -6.03357,9.2869 -9.89554,15.50771 -12.07227,19.28125 0.16195,0.60259 0.33249,1.22292 0.48633,1.8086 17.51285,-21.76308 112.63598,-165.0943 23.39258,-100.31055 z m -23.39258,100.31055 c -3.12379,3.8819 -3.79229,3.92258 -0.48633,-1.8086 -1.62117,-6.03199 -3.65057,-12.9014 -6.07812,-20.49219 -1.8825,3.48134 -3.9901,6.85194 -6.36133,10.08399 -0.91733,-1.37544 -1.26167,2.75838 -2.24219,4.69531 19.37649,46.70769 24.0552,41.35604 15.16797,7.52149 z m -15.16797,-7.52149 c -0.2384,-0.57466 -0.47589,-1.14974 -0.71875,-1.74023 -0.31157,0.81704 -0.63591,1.63365 -0.94141,2.45117 0.72706,0.53729 1.24845,0.10236 1.66016,-0.71094 z m -0.71875,-1.74023 c 2.42137,-6.34965 4.97932,-12.69226 7.34961,-19.09375 -2.35322,-7.10468 -5.00744,-14.73104 -7.99219,-22.8418 -1.36682,10.97555 -2.99777,20.34369 -4.8164,28.27539 1.93065,4.95675 3.74991,9.50464 5.45898,13.66016 z m -5.45898,-13.66016 c -3.45621,-8.87343 -7.27027,-19.06584 -11.44336,-30.64453 -8.96924,8.06654 -18.73406,17.0495 -29.30274,26.96484 1.60684,40.18105 26.74423,64.7469 40.7461,3.67969 z m 4.8164,-28.27539 c 0.0442,-0.3549 0.0911,-0.68862 0.13477,-1.04687 2.21583,-5.6258 2.32773,-11.43779 1.02539,-16.71875 -1.92159,1.66518 -3.90518,3.40061 -5.91406,5.16601 1.66184,4.30676 3.25061,8.51457 4.7539,12.59961 z m 7.99219,22.8418 c 0.68408,2.06532 1.34241,4.08396 1.97266,6.05468 10.30391,-19.05521 13.7969,-41.45095 16.0332,-62.88671 0.10805,-1.56746 0.12201,-3.07338 0.084,-4.54493 -2.97986,2.36533 -6.12394,4.91795 -9.41406,7.63672 0.59371,2.99975 0.6273,6.28905 -0.0293,9.86133 0.76645,15.42958 -3.4342,29.802 -8.64648,43.87891 z M 424.81641,442.2168 c 2.17368,6.6189 4.26897,12.90918 6.32031,19.02148 -5.28755,2.54282 -9.7523,6.46298 -12.54297,11.85156 -7.43,5.45712 -20.76356,53.50172 -18.66797,25.69532 -7.04137,-28.55368 6.41886,-47.71895 24.89063,-56.56836 z"
       style="fill:#0be85e;fill-opacity:1;stroke:#000000;stroke-opacity:1" />
  </g>
  <g
     transform="translate(-56.030504,-272.7206)"
     style="display:inline"
     id="g4195">
    <path
       id="path4197"
       d="m 425.64218,613.58981 c 0.0438,1.68104 0.0841,3.42302 0.12765,5.1783 8.71546,-2.33678 20.46585,0.66465 18.58091,9.70753 -1.00219,3.75548 -1.19824,7.95837 -3.7627,11.06454 -4.03036,5.05212 -6.3374,7.40242 -7.18089,7.6857 2.29618,-0.0979 5.30665,-2.03796 9.26567,-6.51375 19.16475,-24.27003 -16.33767,-23.47307 -17.03064,-27.12232 z m 7.76497,33.63607 c -0.0882,0.004 -0.17505,0.005 -0.26115,0.003 0.0611,0.0352 0.14771,0.0355 0.26115,-0.003 z m -0.26115,0.003 c -0.60954,-0.35102 1.35463,-4.27121 5.27244,-10.23623 2.25989,-3.66561 3.07938,-8.15421 1.61059,-12.27583 -3.47671,-7.26076 -10.08557,-6.59816 -14.15894,-2.3165 0.0206,0.63899 0.0433,1.2764 0.0679,1.91283 3.63219,-4.42058 12.63339,-3.68717 12.1645,3.1145 -0.39468,3.78317 -1.05119,7.76688 -3.34183,10.88909 -0.19437,-0.29143 -0.21544,1.07788 -0.58233,0.80675 1.17893,-3.1549 2.70058,-6.27863 2.5275,-9.7629 0.91722,-4.99025 -7.14137,-6.32367 -9.18523,-2.37712 -0.38021,0.27926 -0.86359,1.30659 -1.32263,2.36779 0.64893,9.69527 2.24371,17.78805 6.94802,17.87762 z m -6.94802,-17.87762 c -0.11008,-1.64467 -0.1939,-3.33224 -0.25998,-5.03811 -1.27264,1.54888 -1.88757,3.72922 -1.20312,6.50472 -0.20548,2.72649 0.58354,0.56677 1.4631,-1.46661 z m -0.32789,-6.95094 c -0.039,-1.21492 -0.0703,-2.42468 -0.10026,-3.63183 -8.36217,2.24206 -13.9305,9.39826 -1.9784,20.85134 -1.93054,-3.77534 -2.87702,-8.53345 -0.78169,-12.40903 0.60969,-1.8592 1.61686,-3.5034 2.86035,-4.81048 z m 5.51115,4.53681 c 1.96568,0.0154 3.87159,2.84275 2.8618,5.40651 -2.34396,19.24091 -10.07121,6.06928 -5.31091,-3.39576 0.64997,-1.44392 1.55561,-2.01775 2.44911,-2.01075 z"
       style="fill:#e8c30b;fill-opacity:1;stroke:#000000;stroke-width:0.14922547;stroke-opacity:1" />
  </g>
</svg>
