<?xml version="1.0" encoding="UTF-8" standalone="no"?>
<svg
   xmlns:dc="http://purl.org/dc/elements/1.1/"
   xmlns:cc="http://creativecommons.org/ns#"
   xmlns:rdf="http://www.w3.org/1999/02/22-rdf-syntax-ns#"
   xmlns:svg="http://www.w3.org/2000/svg"
   xmlns="http://www.w3.org/2000/svg"
   version="1.1"
   id="svg2"
   viewBox="0 0 71.86613 71.901564"
   height="20.292219mm"
   width="20.282219mm">
  <defs
     id="defs4">
    <clipPath
       id="presentation_clip_path"
       clipPathUnits="userSpaceOnUse">
      <rect
         x="0"
         y="0"
         width="21000"
         height="29700"
         id="rect3341" />
    </clipPath>
  </defs>
  <metadata
     id="metadata7">
    <rdf:RDF>
      <cc:Work
         rdf:about="">
        <dc:format>image/svg+xml</dc:format>
        <dc:type
           rdf:resource="http://purl.org/dc/dcmitype/StillImage" />
        <dc:title></dc:title>
      </cc:Work>
    </rdf:RDF>
  </metadata>
  <g
     transform="translate(-278.33498,-579.26856)"
     style="display:inline"
     id="layer4">
    <path
       id="path3397"
       d="m 314.26805,579.76856 c 20.09055,0 35.43307,15.34252 35.43307,35.43307 0,20.09055 -15.34252,35.43307 -35.43307,35.43307 -20.09055,0 -35.43307,-15.34252 -35.43307,-35.43307 0,-20.09055 15.34252,-35.43307 35.43307,-35.43307 z"
       style="display:inline;fill:#dcded1;fill-opacity:1;fill-rule:evenodd;stroke:#a4aa87;stroke-width:0.99999213;stroke-linejoin:round;stroke-opacity:1" />
  </g>
  <g
     transform="translate(-278.33498,-579.26856)"
     style="display:inline;opacity:0.36217951"
     id="layer1">
    <g
       transform="matrix(0.03543307,0,0,0.03543307,-4.6295823,83.705581)"
       id="g3378"
       style="fill-rule:evenodd;stroke-width:28.22200012;stroke-linejoin:round">
      <g
         class="Master_Slide"
         id="id2">
        <g
           class="Background"
           id="bg-id2" />
        <g
           class="BackgroundObjects"
           id="bo-id2" />
      </g>
    </g>
    <g
       transform="matrix(0.03543307,0,0,0.03543307,-4.6295823,83.705581)"
       id="g3383"
       class="SlideGroup"
       style="fill-rule:evenodd;stroke-width:28.22200012;stroke-linejoin:round">
      <g
         id="g3385">
        <g
           clip-path="url(#presentation_clip_path)"
           class="Slide"
           id="id1">
          <g
             id="g3388"
             class="Page">
            <g
               id="g3390"
               class="com.sun.star.drawing.CustomShape">
              <g
                 id="id3">
                <rect
                   id="rect3393"
                   height="2004"
                   width="2004"
                   y="13999"
                   x="7999"
                   class="BoundingBox"
                   style="fill:none;stroke:none" />
                <path
                   id="path3399"
                   d="m 8000,14000 0,0 z"
                   style="fill:none;stroke:#3465a4" />
                <path
                   id="path3401"
                   d="m 10001,16001 0,0 z"
                   style="fill:none;stroke:#3465a4" />
              </g>
            </g>
            <g
               id="g3403"
               class="com.sun.star.drawing.CustomShape">
              <g
                 id="id4">
                <rect
                   id="rect3406"
                   height="2004"
                   width="2004"
                   y="13999"
                   x="7999"
                   class="BoundingBox"
                   style="fill:none;stroke:none" />
                <path
                   id="path3408"
                   d="m 8000,15000 406,144 0,-288 -406,144 z m 0,-1000 0,0 z m 2001,2001 0,0 z"
                   style="fill:#b8bca2;fill-opacity:1;stroke:none" />
                <path
                   id="path3412"
                   d="m 8000,14000 0,0 z"
                   style="fill:none;stroke:#3465a4" />
                <path
                   id="path3414"
                   d="m 10001,16001 0,0 z"
                   style="fill:none;stroke:#3465a4" />
                <path
                   id="path3416"
                   d="m 8293,15707 389,-185 -204,-204 -185,389 z m -293,-1707 0,0 z m 2001,2001 0,0 z"
                   style="fill:#b8bca2;fill-opacity:1;stroke:none" />
                <path
                   id="path3420"
                   d="m 8000,14000 0,0 z"
                   style="fill:none;stroke:#3465a4" />
                <path
                   id="path3422"
                   d="m 10001,16001 0,0 z"
                   style="fill:none;stroke:#3465a4" />
                <path
                   id="path3424"
                   d="m 9000,16001 144,-407 -288,0 144,407 z m -1000,-2001 0,0 z m 2001,2001 0,0 z"
                   style="fill:#b8bca2;fill-opacity:1;stroke:none" />
                <path
                   id="path3428"
                   d="m 8000,14000 0,0 z"
                   style="fill:none;stroke:#3465a4" />
                <path
                   id="path3430"
                   d="m 10001,16001 0,0 z"
                   style="fill:none;stroke:#3465a4" />
                <path
                   id="path3432"
                   d="m 9707,15707 -185,-389 -204,204 389,185 z m -1707,-1707 0,0 z m 2001,2001 0,0 z"
                   style="fill:#b8bca2;fill-opacity:1;stroke:none" />
                <path
                   id="path3436"
                   d="m 8000,14000 0,0 z"
                   style="fill:none;stroke:#3465a4" />
                <path
                   id="path3438"
                   d="m 10001,16001 0,0 z"
                   style="fill:none;stroke:#3465a4" />
                <path
                   id="path3440"
                   d="m 10001,15000 -407,-144 0,288 407,-144 z m -2001,-1000 0,0 z m 2001,2001 0,0 z"
                   style="fill:#b8bca2;fill-opacity:1;stroke:none" />
                <path
                   id="path3444"
                   d="m 8000,14000 0,0 z"
                   style="fill:none;stroke:#3465a4" />
                <path
                   id="path3446"
                   d="m 10001,16001 0,0 z"
                   style="fill:none;stroke:#3465a4" />
                <path
                   id="path3448"
                   d="m 9707,14293 -389,185 204,204 185,-389 z m -1707,-293 0,0 z m 2001,2001 0,0 z"
                   style="fill:#b8bca2;fill-opacity:1;stroke:none" />
                <path
                   id="path3452"
                   d="m 8000,14000 0,0 z"
                   style="fill:none;stroke:#3465a4" />
                <path
                   id="path3454"
                   d="m 10001,16001 0,0 z"
                   style="fill:none;stroke:#3465a4" />
                <path
                   id="path3456"
                   d="m 9000,14000 -144,406 288,0 -144,-406 z m -1000,0 0,0 z m 2001,2001 0,0 z"
                   style="fill:#b8bca2;fill-opacity:1;stroke:none" />
                <path
                   id="path3460"
                   d="m 8000,14000 0,0 z"
                   style="fill:none;stroke:#3465a4" />
                <path
                   id="path3462"
                   d="m 10001,16001 0,0 z"
                   style="fill:none;stroke:#3465a4" />
                <path
                   id="path3464"
                   d="m 8293,14293 185,389 204,-204 -389,-185 z m -293,-293 0,0 z m 2001,2001 0,0 z"
                   style="fill:#b8bca2;fill-opacity:1;stroke:none" />
                <path
                   id="path3468"
                   d="m 8000,14000 0,0 z"
                   style="fill:none;stroke:#3465a4" />
                <path
                   id="path3470"
                   d="m 10001,16001 0,0 z"
                   style="fill:none;stroke:#3465a4" />
                <path
                   id="path3476"
                   d="m 8000,14000 0,0 z"
                   style="fill:none;stroke:#3465a4" />
                <path
                   id="path3478"
                   d="m 10001,16001 0,0 z"
                   style="fill:none;stroke:#3465a4" />
              </g>
            </g>
            <g
               id="g3480"
               class="com.sun.star.drawing.CustomShape">
              <g
                 id="id5">
                <rect
                   id="rect3483"
                   height="1404"
                   width="1004"
                   y="14299"
                   x="8499"
                   class="BoundingBox"
                   style="fill:none;stroke:none" />
                <path
                   id="path3489"
                   d="m 8500,14300 0,0 z"
                   style="fill:none;stroke:#3465a4" />
                <path
                   id="path3491"
                   d="m 9501,15701 0,0 z"
                   style="fill:none;stroke:#3465a4" />
              </g>
            </g>
          </g>
        </g>
      </g>
    </g>
  </g>
  <g
     transform="translate(-278.33498,-579.26856)"
     style="display:inline"
     id="layer3">
    <path
       id="path3487"
       d="m 305.40979,640.00478 0,-37.20473 -8.85827,0 17.71653,-12.40157 17.75197,12.40157 -8.8937,0 0,37.20473 -17.71653,0 z"
       style="fill:#9faf78;fill-opacity:1;fill-rule:evenodd;stroke:#3e5f12;stroke-width:0.2;stroke-linejoin:round;stroke-miterlimit:4;stroke-dasharray:none;stroke-opacity:1" />
  </g>
</svg>
