<?xml version="1.0" encoding="UTF-8" standalone="no"?>
<!-- Created with Inkscape (http://www.inkscape.org/) -->

<svg
   xmlns:dc="http://purl.org/dc/elements/1.1/"
   xmlns:cc="http://creativecommons.org/ns#"
   xmlns:rdf="http://www.w3.org/1999/02/22-rdf-syntax-ns#"
   xmlns:svg="http://www.w3.org/2000/svg"
   xmlns="http://www.w3.org/2000/svg"
   xmlns:sodipodi="http://sodipodi.sourceforge.net/DTD/sodipodi-0.dtd"
   xmlns:inkscape="http://www.inkscape.org/namespaces/inkscape"
   width="122.26726mm"
   height="59.299389mm"
   viewBox="0 0 433.23044 210.11594"
   id="svg2"
   version="1.1"
   inkscape:version="0.91 r13725"
   sodipodi:docname="Cromok.svg">
  <defs
     id="defs4" />
  <sodipodi:namedview
     id="base"
     pagecolor="#acacac"
     bordercolor="#666666"
     borderopacity="1.0"
     inkscape:pageopacity="0"
     inkscape:pageshadow="2"
     inkscape:zoom="1.8304347"
     inkscape:cx="216.61522"
     inkscape:cy="105.05797"
     inkscape:document-units="px"
     inkscape:current-layer="layer7"
     showgrid="false"
     fit-margin-top="0"
     fit-margin-left="0"
     fit-margin-right="0"
     fit-margin-bottom="0"
     inkscape:window-width="1280"
     inkscape:window-height="938"
     inkscape:window-x="0"
     inkscape:window-y="26"
     inkscape:window-maximized="1" />
  <metadata
     id="metadata7">
    <rdf:RDF>
      <cc:Work
         rdf:about="">
        <dc:format>image/svg+xml</dc:format>
        <dc:type
           rdf:resource="http://purl.org/dc/dcmitype/StillImage" />
        <dc:title></dc:title>
      </cc:Work>
    </rdf:RDF>
  </metadata>
  <g
     inkscape:groupmode="layer"
     id="layer5"
     inkscape:label="Нутро"
     style="display:inline"
     transform="translate(-528.20013,-642.49038)">
    <path
       style="display:inline;fill:#fe0201;fill-opacity:1"
       d="m 860.16047,849.40109 c -4.78497,-0.58686 -3.60501,-2.23972 1.59893,-2.23972 2.25437,0 7.45437,-0.8582 11.55556,-1.90711 20.70456,-5.29533 38.65055,-19.4971 50.24541,-39.7623 5.49914,-9.61128 10.83509,-25.21253 10.9631,-32.05399 l 0.0985,-5.26596 -26.18831,-0.47872 -26.18831,-0.47873 -2.18902,-8.61702 c -1.20396,-4.73936 -3.31346,-11.14641 -4.68777,-14.23789 -3.289,-7.39855 -10.13409,-16.89566 -14.89588,-20.66707 l -3.81851,-3.02431 -0.58995,2.68804 c -2.22603,10.14262 -6.69661,27.08808 -9.1711,34.76251 -3.14258,9.74649 -5.17686,14.10157 -4.24864,9.09574 0.29293,-1.57978 0.81366,-10.65212 1.15719,-20.16074 1.10191,-30.50058 -2.7318,-49.17592 -13.57438,-66.1256 -4.25572,-6.65276 -12.61699,-15.57099 -18.97276,-20.23655 l -4.6694,-3.42765 10.88012,-4.21083 c 5.98406,-2.31595 12.06496,-4.45141 13.5131,-4.74547 2.46921,-0.50139 2.63298,-0.32799 2.63298,2.78771 0,2.15894 0.70394,3.95942 2.01026,5.14162 5.22957,4.73269 19.05357,29.9263 19.05357,34.72426 0,2.61631 1.72897,0.63722 4.69053,-5.36909 4.64853,-9.42761 10.46807,-18.02079 17.25371,-25.47697 4.85244,-5.33195 5.86871,-6.99801 5.40229,-8.85638 l -0.5745,-2.28899 10.78952,0.0147 c 13.20219,0.0179 14.56746,0.63139 9.64284,4.33272 -6.76673,5.08586 -16.78126,15.23668 -23.24692,23.56329 -5.60131,7.21349 -15.34045,23.95498 -15.34045,26.37009 0,0.46106 1.34003,1.62987 2.97783,2.59734 5.59329,3.30404 16.25241,14.27788 21.39759,22.02936 5.08772,7.66493 8.66486,14.83474 11.05119,22.15037 0.67863,2.08043 1.63092,4.04116 2.11622,4.35717 0.48529,0.31602 1.00234,1.39314 1.149,2.39362 0.25404,1.73306 1.59575,1.83106 28.3873,2.0732 15.46636,0.13977 28.43365,0.57063 28.81619,0.95744 0.96589,0.97669 -0.72042,13.52879 -3.05294,22.72457 -1.06857,4.21277 -4.37441,12.61436 -7.3463,18.67021 -5.06345,10.31783 -6.10084,11.70804 -16.487,22.09419 -10.36722,10.36722 -11.79516,11.43413 -22.09418,16.50802 -6.05585,2.98345 -14.45745,6.29148 -18.67022,7.35115 -7.58283,1.90738 -24.34549,3.10612 -31.37643,2.24381 z m -57.1874,-42.86879 c 0,-0.28852 1.53886,-2.54058 3.41968,-5.0046 6.72804,-8.81421 11.10699,-19.76777 12.41995,-31.0674 l 0.62412,-5.37129 -6.47427,-3.02967 c -18.72891,-8.76431 -32.85005,-34.50176 -33.15555,-60.42988 -0.22235,-18.87222 7.07482,-30.51861 20.22706,-32.2827 9.40014,-1.26082 24.24074,10.12201 30.92386,23.7188 16.89146,34.3656 9.72328,81.53964 -15.95061,104.97149 -5.71076,5.21206 -12.03424,9.67594 -12.03424,8.49525 z m 18.29512,-57.02391 c 4.6771,-4.91666 5.18098,-7.89416 3.86504,-22.83923 -1.2567,-14.27233 -3.07588,-22.09799 -7.27199,-31.28238 -7.72556,-16.90958 -19.74592,-22.11365 -25.41425,-11.00279 -8.46968,16.60194 0.20262,55.71263 14.67883,66.19914 5.6021,4.05815 9.54458,3.75854 14.14237,-1.07474 z m -78.88613,54.08915 c -0.3145,-1.05319 -0.85956,-4.5 -1.21126,-7.65957 -1.29569,-11.64044 -6.30697,-37.34154 -10.48563,-53.7771 -2.36383,-9.29743 -4.49232,-17.09887 -4.72998,-17.33654 -0.83372,-0.8337 -4.41602,6.06829 -6.32507,12.18648 -1.97578,6.33207 -4.74216,20.61175 -4.74216,24.47842 0,1.18917 -0.75399,3.08618 -1.67553,4.21556 -1.60037,1.96132 -2.33542,2.04124 -16.38725,1.7816 l -14.71172,-0.27183 8.09497,-8.61702 c 6.38486,-6.79662 8.21807,-9.38882 8.6777,-12.27041 l 0.58273,-3.65338 -6.41279,6.53858 c -4.15005,4.23147 -8.81583,7.79504 -13.22321,10.09949 -3.74574,1.95849 -7.36121,4.22456 -8.03439,5.03569 -2.77934,3.3489 0.96605,20.75729 7.04727,32.75544 1.39238,2.74712 2.53158,5.24887 2.53158,5.55944 0,1.63008 -6.80229,-3.79745 -13.03181,-10.39802 -8.17346,-8.6603 -15.23518,-21.76874 -18.65263,-34.62427 -2.83284,-10.65643 -3.54853,-31.50145 -1.45629,-42.4163 4.65157,-24.26658 19.14545,-42.47778 36.38038,-45.71108 5.21193,-0.97776 11.15881,1.20613 15.45873,5.67695 5.69751,5.92397 7.31065,11.69912 8.00663,28.66434 l 0.58223,14.19264 5.02659,-7.23846 c 2.76463,-3.98115 5.0266,-7.6873 5.0266,-8.2359 0,-0.54859 -1.34507,-3.67797 -2.98904,-6.95418 -8.89801,-17.73246 -17.97905,-29.88336 -28.81775,-38.55964 -3.83339,-3.06859 -7.6007,-6.14385 -8.37179,-6.83392 -1.16131,-1.0393 2.02792,-1.25467 18.57925,-1.25467 19.29683,0 19.92695,0.06 18.39666,1.75093 -0.87151,0.963 -1.5584,2.79412 -1.52642,4.06915 0.032,1.27502 3.80193,9.85812 8.37766,19.07354 5.94924,11.98164 8.72869,16.65455 9.75569,16.40163 3.485,-0.85826 4.09157,-0.3526 6.1669,5.14092 l 2.17022,5.74469 -2.34533,3.08287 -2.34531,3.08288 2.52198,12.23628 c 1.38708,6.72994 2.77054,12.88254 3.07434,13.67243 0.30379,0.7899 2.00085,-3.94947 3.77123,-10.53191 4.88104,-18.14811 4.74422,-17.03135 2.39312,-19.53398 -1.96169,-2.08813 -2.02178,-2.59916 -1.03321,-8.78736 0.57729,-3.61367 1.20151,-6.7222 1.38716,-6.90785 0.18564,-0.18565 1.71018,0.37227 3.38783,1.23983 1.67766,0.86755 3.18824,1.43788 3.35684,1.2674 0.1686,-0.17047 1.66167,-3.72354 3.31795,-7.8957 1.65626,-4.17216 5.14052,-11.75338 7.74277,-16.84714 2.60226,-5.09377 4.73138,-9.83859 4.73138,-10.54404 0,-0.70545 -0.9368,-2.27982 -2.08179,-3.4986 l -2.08179,-2.21597 18.93657,0 18.93658,0 -7.04096,7.48781 c -3.87252,4.11829 -9.18737,10.68877 -11.81077,14.60106 -5.22344,7.78974 -13.67943,24.099 -15.75408,30.38524 -1.27484,3.8628 -1.22378,4.12003 1.6965,8.54683 7.92398,12.01183 13.34707,26.95379 17.01532,46.88136 0.32994,1.79238 1.11018,2.14729 5.26224,2.39361 4.60932,0.27345 5.00546,0.51086 7.27234,4.35835 l 2.39747,4.06915 -15.89509,0 c -8.74231,0 -15.89569,-0.32314 -15.89641,-0.71809 -0.0114,-6.24485 -8.44877,-37.72932 -10.44086,-38.96049 -1.32527,-0.81906 -4.68863,7.26041 -7.26002,17.44 -1.29387,5.12218 -4.10279,20.29975 -6.24205,33.72794 -4.39378,27.58001 -4.27593,27.01041 -5.05102,24.41489 z m -62.61733,-54.21063 c 6.91461,-3.54551 13.44231,-13.69263 17.48012,-27.17235 2.16059,-7.21286 2.59926,-10.56723 2.69195,-20.5851 0.0964,-10.41785 -0.15928,-12.55255 -1.97388,-16.48024 -3.57878,-7.74625 -10.54919,-7.56632 -18.8609,0.48685 -8.74059,8.46872 -13.71204,23.38117 -14.67801,44.02842 -0.63895,13.65742 -0.0345,15.96527 4.98523,19.03249 3.26427,1.99459 7.28824,2.26269 10.35549,0.68993 z m -146.34859,15.39465 c -1.65157,-1.82496 -1.68891,-2.60114 -0.56433,-11.72873 1.20846,-9.80835 1.58512,-11.83582 4.46321,-24.0246 1.99829,-8.46276 7.57328,-24.48111 10.68456,-30.69938 7.7283,-15.44597 20.88082,-30.27332 33.45145,-37.71111 15.77985,-9.33663 40.86522,-13.7575 61.1497,-10.77659 5.43508,0.79871 6.56975,0.30482 -10.05319,4.3759 -29.76462,7.28958 -51.27339,23.78404 -64.04497,49.11426 -8.06496,15.99544 -13.31171,41.16902 -10.99493,52.75293 l 0.59841,2.99203 27.45478,0 c 20.07713,0 27.76353,-0.30874 28.60373,-1.14894 2.96173,-2.96174 -0.3408,-18.31213 -5.46017,-25.37921 -1.53994,-2.12583 -4.089,-4.31453 -5.66457,-4.86378 -3.5094,-1.22337 -3.53124,-1.16414 -5.12941,13.91852 l -1.14134,10.77128 -16.57885,0 -16.57886,0 0,-4.65426 0,-4.65425 5.82033,-0.52777 c 3.20117,-0.29027 6.01082,-0.71827 6.24365,-0.95109 0.23283,-0.23283 1.03446,-3.89931 1.78141,-8.14772 5.09738,-28.99251 22.45846,-56.32664 40.75689,-64.16964 6.50321,-2.78738 14.165,-4.16555 19.07048,-3.4303 11.34776,1.70083 15.53563,15.46481 9.56268,31.42894 -2.31478,6.18679 -9.84767,17.84855 -14.21987,22.01394 -1.62346,1.54666 -2.95173,3.1911 -2.95173,3.65431 0,0.46321 1.0642,2.23744 2.36489,3.94273 4.94434,6.48237 9.01605,19.08071 9.09083,28.12809 0.0301,3.63962 0.27451,4.06915 2.31559,4.06915 2.26365,0 3.4186,2.00345 3.44966,5.98404 0.0122,1.57675 -3.28036,1.67553 -55.84918,1.67553 -55.02164,0 -55.88886,-0.0294 -57.63085,-1.95428 z m 83.86362,-50.41844 c 6.5023,-3.22397 19.53874,-16.13869 23.20851,-22.99182 3.45296,-6.44827 4.45663,-13.96006 2.19862,-16.45514 -4.10634,-4.53745 -11.66012,-3.02193 -19.17619,3.84733 -10.784,9.85596 -21.62464,31.76803 -18.34337,37.07724 1.17014,1.89333 6.66587,1.2229 12.11243,-1.47761 z"
       id="path4878"
       inkscape:connector-curvature="0" />
  </g>
  <g
     inkscape:groupmode="layer"
     id="layer7"
     inkscape:label="Обводка"
     style="display:inline"
     transform="translate(-528.20013,-642.49038)">
    <path
       style="fill:#ffffff;fill-opacity:1"
       d="m 854.47973,851.48204 c -5.05704,-1.28153 -14.64295,-5.64123 -15.51942,-7.05826 -0.2087,-0.33741 6.36544,-0.61513 14.60921,-0.61713 13.86255,-0.004 15.54206,-0.19932 22.35451,-2.60796 25.2086,-8.9129 43.71147,-29.39767 53.43794,-59.16182 2.20968,-6.76188 2.63553,-9.15963 1.80461,-10.16082 -0.8698,-1.04805 -6.12074,-1.31043 -26.22542,-1.31043 -18.97339,0 -25.36713,-0.29349 -26.07277,-1.19681 -0.51419,-0.65825 -1.6641,-4.16562 -2.55536,-7.79417 -2.18697,-8.90379 -5.60101,-16.86372 -10.92719,-25.4771 -5.27751,-8.53468 -6.89507,-10.53191 -8.52981,-10.53191 -1.34327,0 -1.53106,-0.9565 -0.64242,-3.27224 1.4786,-3.85319 14.09207,10.67733 19.15499,22.06625 1.37431,3.09148 3.48381,9.49853 4.68777,14.23789 l 2.18902,8.61702 26.18831,0.47873 26.18831,0.47872 -0.0985,5.26596 c -0.12801,6.84146 -5.46396,22.44271 -10.9631,32.05399 -11.59486,20.2652 -29.54085,34.46697 -50.24541,39.7623 -4.10119,1.04891 -9.30119,1.90711 -11.55556,1.90711 -6.98359,0 -5.56816,1.71414 2.00113,2.42344 14.95337,1.40124 30.33154,-1.83593 46.44659,-9.77723 10.29773,-5.07461 11.72826,-6.14355 22.09418,-16.50947 10.38616,-10.38615 11.42355,-11.77636 16.487,-22.09419 2.97189,-6.05585 6.27773,-14.45744 7.3463,-18.67021 2.33252,-9.19578 4.01883,-21.74788 3.05294,-22.72457 -0.38254,-0.38681 -13.28335,-0.81767 -28.66848,-0.95744 -17.8415,-0.16211 -27.97269,-0.60094 -27.97224,-1.2116 4.7e-4,-0.61753 10.45332,-0.95745 29.44221,-0.95745 l 29.44149,0 -0.12766,2.39362 c -0.51669,9.68716 -2.04092,19.80974 -3.35195,22.26063 -0.49295,0.92155 -0.69829,1.67554 -0.45633,1.67554 0.24197,0 -0.40811,2.47739 -1.44461,5.50531 -10.09969,29.50394 -31.31959,50.20887 -62.11945,60.61191 -8.01514,2.70721 -10.57446,3.11166 -21.54255,3.40431 -8.68444,0.23171 -14.09767,-0.0863 -17.90824,-1.05192 z m -114.08921,-32.7704 c -3.22875,-24.3253 -10.58366,-65.52481 -14.10724,-79.02367 -0.51547,-1.97474 -1.50979,-3.59043 -2.20962,-3.59043 -1.89929,0 -6.32466,14.41406 -7.64279,24.89361 l -1.14407,9.09574 -21.26325,0.25768 c -17.28236,0.20944 -21.26325,0.50425 -21.26325,1.57469 0,5.46997 8.03113,24.03044 14.05852,32.49015 1.81891,2.55291 3.11563,4.83312 2.8816,5.06715 -0.75409,0.7541 -10.88488,-4.16061 -16.65882,-8.08162 -10.50549,-7.13414 -20.15407,-19.43735 -23.61421,-30.11124 -0.50954,-1.57182 -4.20743,-1.67553 -59.74342,-1.67553 -44.76806,0 -59.48036,-0.28009 -60.3492,-1.14894 -3.5706,-3.57059 1.82087,-39.00842 8.7251,-57.34965 6.96235,-18.49563 17.41716,-34.05285 29.43547,-43.80124 9.12136,-7.3986 9.6905,-7.76867 18.61603,-12.10465 12.62705,-6.13417 21.42621,-8.21241 37.34042,-8.81928 14.65488,-0.55886 23.20863,0.38727 33.60384,3.71691 l 6.60893,2.11688 -10.05319,1.10642 c -8.27265,0.91046 -16.73638,2.16909 -19.14894,2.8476 -0.2633,0.074 -1.77128,0.46354 -3.35106,0.86554 -5.405,1.37535 -17.23065,6.5206 -23.46522,10.20953 -20.68542,12.23937 -35.96245,33.30504 -42.54261,58.66252 -1.34729,5.19196 -2.44962,10.03903 -2.44962,10.77128 0,0.95864 1.33506,1.33135 4.76899,1.33135 5.33667,0 4.71511,1.01029 6.67341,-10.84712 2.61098,-15.8093 10.8977,-31.6018 22.99874,-43.83007 7.62007,-7.70018 12.21959,-11.0059 21.5695,-15.50218 6.79172,-3.26607 8.11611,-3.66297 14.17781,-4.24885 6.77796,-0.65511 10.74212,0.40672 14.4009,3.8574 4.04762,3.8174 6.06326,11.74864 4.65905,18.33258 -0.49328,2.31287 -0.54941,4.76746 -0.1247,5.45464 0.9449,1.52888 1.0665,1.40148 3.76301,-3.94243 1.19055,-2.35942 4.79803,-6.92106 8.01663,-10.13698 6.58855,-6.58308 13.50038,-9.8187 22.84666,-10.69518 3.02793,-0.28396 5.50532,-0.81219 5.50532,-1.17385 0,-0.7789 -4.18352,-4.82115 -4.98964,-4.82115 -0.7685,0 -18.94653,-12.45372 -18.94653,-12.98022 0,-0.23322 13.38987,-0.42404 29.75528,-0.42404 l 29.75529,0 -4.05298,3.1117 c -6.01984,4.62178 -6.44506,5.69546 -3.95893,9.99621 2.61044,4.51578 9.07044,17.68486 11.13372,22.69674 1.50185,3.64811 1.57769,3.69213 3.44686,2.00055 2.2417,-2.02871 2.01021,-2.22706 4.41026,3.77885 1.03791,2.59729 2.3754,4.8851 2.9722,5.08404 0.60861,0.20287 1.82194,-1.97589 2.76314,-4.96171 0.92293,-2.92787 2.07143,-5.3234 2.55221,-5.3234 0.48079,0 2.06722,0.84954 3.52541,1.88786 l 2.65126,1.88786 2.89422,-5.95701 c 6.94483,-14.29412 10.76908,-23.01298 10.76908,-24.55227 0,-2.19119 -3.22485,-5.04937 -9.09574,-8.06153 l -4.78724,-2.45618 29.68085,-0.008 29.68086,-0.008 -4.77354,4.20564 c -2.62544,2.3131 -4.46611,4.51306 -4.09037,4.8888 0.5682,0.56821 18.10468,-6.2264 30.24485,-11.71854 1.75421,-0.79359 3.39514,-1.23722 3.64652,-0.98584 0.25138,0.25138 -0.145,1.90389 -0.88084,3.67225 -1.69763,4.0797 -1.3388,5.09499 3.73815,10.57734 4.2619,4.6022 9.50487,14.29781 12.32815,22.79788 0.87444,2.63265 1.97888,4.7867 2.45428,4.7867 0.4754,0 2.00671,-2.26197 3.40292,-5.0266 2.31862,-4.59113 7.60504,-12.96082 8.91988,-14.12234 0.29805,-0.2633 2.42444,-2.77125 4.72531,-5.57323 3.62526,-4.4148 4.11232,-5.53254 3.65062,-8.37766 l -0.53278,-3.28315 19.80683,0.0304 c 21.41726,0.0329 20.36172,-0.31636 13.64305,4.51471 -12.11959,8.71461 -26.61514,22.84076 -32.67038,31.83783 -2.30368,3.42287 -5.56091,9.07931 -7.23831,12.56988 l -3.0498,6.34648 5.89092,4.3525 c 3.24001,2.39389 7.89063,6.43159 10.33472,8.97268 4.82633,5.01785 13.26536,16.97122 13.27486,18.80302 0.003,0.62495 0.60236,2.27948 1.33137,3.67671 1.47409,2.82524 3.29589,8.05665 3.90237,11.20589 0.21807,1.13231 0.66176,2.48798 0.98599,3.0126 0.32423,0.52461 0.13324,0.95384 -0.42443,0.95384 -0.55768,0 -1.02184,-0.53856 -1.03148,-1.19681 -0.044,-3.00679 -7.0578,-17.82091 -11.84053,-25.00892 -5.27863,-7.93328 -15.91266,-18.90697 -21.5471,-22.23531 -1.6378,-0.96747 -2.97783,-2.13628 -2.97783,-2.59734 0,-2.41511 9.73914,-19.1566 15.34045,-26.37009 6.46566,-8.32661 16.48019,-18.47743 23.24692,-23.56329 4.92462,-3.70133 3.55935,-4.31477 -9.64284,-4.33271 l -10.78952,-0.0147 0.5745,2.28899 c 0.46642,1.85837 -0.54985,3.52443 -5.40229,8.85638 -6.78564,7.45618 -12.60518,16.04936 -17.25371,25.47697 -2.96156,6.00631 -4.69053,7.9854 -4.69053,5.36909 0,-4.79796 -13.824,-29.99157 -19.05357,-34.72426 -1.30632,-1.1822 -2.01026,-2.98268 -2.01026,-5.14162 0,-3.1157 -0.16377,-3.2891 -2.63298,-2.78771 -1.44814,0.29406 -7.52904,2.42952 -13.5131,4.74547 l -10.88012,4.21083 4.6694,3.42765 c 6.35577,4.66556 14.71704,13.58379 18.97276,20.23655 10.84258,16.94968 14.67629,35.62502 13.57438,66.12559 -0.34353,9.50862 -0.86426,18.58096 -1.15719,20.16074 -1.8239,9.83627 5.71105,-12.1256 9.68601,-28.23149 1.36284,-5.52201 2.65799,-10.22012 2.87813,-10.44025 1.02453,-1.02453 -0.85311,12.85368 -2.90039,21.4377 -2.96438,12.4293 -14.00926,40.91104 -15.34631,39.57399 -0.23962,-0.2396 -0.0176,-4.07156 0.49323,-8.51546 1.17223,-10.19659 1.1672,-10.70759 -0.10135,-10.28474 -0.57461,0.19154 -2.26992,3.22017 -3.76734,6.73029 -7.65858,17.95258 -19.97217,29.83837 -34.95541,33.74101 -10.63736,2.77068 -10.84524,2.29405 -2.59951,-5.96016 5.27964,-5.28507 8.46509,-9.49716 11.04223,-14.60106 3.67913,-7.28636 6.74578,-16.90023 5.85211,-18.34622 -0.27027,-0.43731 -10.10736,-0.7951 -21.8602,-0.7951 -17.09423,0 -21.59018,-0.26672 -22.47542,-1.33336 -0.60863,-0.73335 -1.73578,-5.58043 -2.50479,-10.77128 -1.74234,-11.76085 -4.3986,-23.32088 -5.35866,-23.32088 -0.39923,0 -0.96451,0.38612 -1.25617,0.85804 -1.86096,3.0111 -12.64187,63.05488 -14.97405,83.39727 -0.6339,5.52926 -1.42638,10.36562 -1.76107,10.74748 -0.33468,0.38185 -1.38994,-5.19305 -2.34504,-12.38869 z m 74.61679,-20.6746 c 25.67389,-23.43185 32.84207,-70.60588 15.95061,-104.97148 -6.68312,-13.59679 -21.52372,-24.97962 -30.92386,-23.7188 -13.15224,1.76409 -20.44941,13.41048 -20.22706,32.2827 0.3055,25.92812 14.42664,51.66556 33.15555,60.42987 l 6.47427,3.02967 -0.62412,5.37129 c -1.31296,11.29963 -5.69191,22.25319 -12.41995,31.0674 -1.88082,2.46402 -3.41968,4.71608 -3.41968,5.0046 0,1.18069 6.32348,-3.28319 12.03424,-8.49525 z m -7.88149,-47.45392 c -14.47621,-10.4865 -23.14851,-49.59719 -14.67883,-66.19913 5.66833,-11.11086 17.68869,-5.90679 25.41425,11.00279 4.19611,9.18439 6.01529,17.01005 7.27199,31.28238 1.31594,14.94507 0.81206,17.92256 -3.86504,22.83922 -4.59779,4.83328 -8.54027,5.13289 -14.14237,1.07474 z m 9.62047,-3.12043 c 3.84012,-1.74967 4.77365,-5.4912 4.10468,-16.45142 -0.32745,-5.36479 -0.82217,-10.89515 -1.09939,-12.2897 -1.21871,-6.13077 -4.64528,-16.14161 -7.47966,-21.8521 -3.00232,-6.04884 -10.78953,-15.34639 -12.85344,-15.34639 -0.56884,0 -2.34233,1.48979 -3.94108,3.31066 -3.77524,4.29977 -4.53829,9.56029 -3.07406,21.19307 2.19742,17.45776 7.38139,31.42569 14.40228,38.80617 3.67339,3.86154 5.92805,4.45799 9.94067,2.62971 z m -69.31321,31.71995 c 2.13926,-13.42819 4.94818,-28.60576 6.24205,-33.72794 2.57139,-10.17958 5.93475,-18.25905 7.26002,-17.43999 1.99209,1.23117 10.42948,32.71563 10.44086,38.96048 7.2e-4,0.39495 7.1541,0.71809 15.89641,0.71809 l 15.89509,0 -2.39747,-4.06915 c -2.26688,-3.84749 -2.66302,-4.0849 -7.27234,-4.35835 -4.15206,-0.24632 -4.9323,-0.60123 -5.26224,-2.39361 -3.66825,-19.92756 -9.09134,-34.86952 -17.01532,-46.88135 -2.92028,-4.4268 -2.97134,-4.68403 -1.6965,-8.54683 2.07465,-6.28624 10.53064,-22.5955 15.75408,-30.38524 2.6234,-3.91229 7.93825,-10.48277 11.81077,-14.60106 l 7.04096,-7.48781 -18.93658,0 -18.93657,0 2.08179,2.21597 c 1.14499,1.21878 2.08179,2.79315 2.08179,3.4986 0,0.70545 -2.12912,5.45027 -4.73138,10.54404 -2.60225,5.09376 -6.08651,12.67498 -7.74277,16.84714 -1.65628,4.17216 -3.14935,7.72523 -3.31795,7.8957 -0.1686,0.17048 -1.67918,-0.39985 -3.35684,-1.2674 -1.67765,-0.86756 -3.20219,-1.42548 -3.38783,-1.23983 -0.18565,0.18565 -0.80987,3.29418 -1.38716,6.90785 -0.98857,6.1882 -0.92848,6.69923 1.03321,8.78736 2.3511,2.50263 2.48792,1.38587 -2.39312,19.53398 -1.77038,6.58244 -3.46744,11.32181 -3.77123,10.53191 -0.3038,-0.78989 -1.68726,-6.94249 -3.07434,-13.67243 l -2.52198,-12.23628 2.34531,-3.08288 2.34533,-3.08287 -2.17022,-5.74469 c -2.07533,-5.49352 -2.6819,-5.99918 -6.1669,-5.14092 -1.027,0.25292 -3.80645,-4.41999 -9.75569,-16.40163 -4.57573,-9.21542 -8.34568,-17.79852 -8.37766,-19.07354 -0.032,-1.27503 0.65491,-3.10615 1.52642,-4.06915 1.53029,-1.69095 0.90017,-1.75093 -18.39666,-1.75093 -16.55133,0 -19.74056,0.21537 -18.57925,1.25467 0.77109,0.69007 4.5384,3.76533 8.37179,6.83392 10.8387,8.67628 19.91974,20.82718 28.81775,38.55964 1.64397,3.27621 2.98904,6.40559 2.98904,6.95418 0,0.5486 -2.26197,4.25475 -5.0266,8.2359 l -5.02659,7.23846 -0.58223,-14.19264 c -0.69598,-16.96522 -2.30912,-22.74037 -8.00663,-28.66434 -4.29992,-4.47082 -10.2468,-6.65471 -15.45873,-5.67695 -17.23493,3.2333 -31.72881,21.4445 -36.38038,45.71108 -2.09224,10.91485 -1.37655,31.75986 1.45629,42.41629 3.41745,12.85553 10.47917,25.96397 18.65263,34.62427 6.22952,6.60057 13.03181,12.0281 13.03181,10.39802 0,-0.31057 -1.1392,-2.81232 -2.53158,-5.55944 -6.08122,-11.99815 -9.82661,-29.40654 -7.04727,-32.75544 0.67318,-0.81113 4.28865,-3.0772 8.03439,-5.03569 4.40738,-2.30445 9.07316,-5.86802 13.22321,-10.09949 l 6.41279,-6.53858 -0.58273,3.65338 c -0.45963,2.88159 -2.29284,5.47379 -8.6777,12.27041 l -8.09497,8.61702 14.71172,0.27183 c 14.05183,0.25964 14.78688,0.17972 16.38725,-1.7816 0.92154,-1.12938 1.67553,-3.02639 1.67553,-4.21556 0,-3.86667 2.76638,-18.14635 4.74216,-24.47841 1.90905,-6.11819 5.49135,-13.02018 6.32507,-12.18648 0.23766,0.23767 2.36615,8.03911 4.72998,17.33654 4.17866,16.43555 9.18994,42.13665 10.48563,53.77709 0.70206,6.3072 1.61868,10.10841 2.07792,8.61702 0.16215,-0.5266 2.04511,-11.94415 4.18436,-25.37234 z m -78.02384,-30.48567 c -5.01967,-3.06722 -5.62418,-5.37507 -4.98523,-19.03248 0.96597,-20.64725 5.93742,-35.5597 14.67801,-44.02842 8.31171,-8.05317 15.28212,-8.2331 18.8609,-0.48685 1.8146,3.92769 2.07027,6.06239 1.97388,16.48024 -0.0927,10.01787 -0.53136,13.37224 -2.69195,20.5851 -6.46084,21.56867 -17.96511,32.51366 -27.83561,26.48241 z m 12.36935,-5.92813 c 9.815,-9.04714 17.787,-36.04806 14.95357,-50.64728 -1.2944,-6.66939 -3.11874,-8.68359 -7.86505,-8.68359 -2.98283,0 -4.50245,0.7371 -7.81557,3.79103 -7.59068,6.99685 -12.25601,20.2137 -14.08943,39.91525 -0.87315,9.38275 -0.80199,11.27236 0.53027,14.07988 3.03289,6.39133 8.39881,6.97152 14.28621,1.54471 z m -34.88242,22.29146 c -0.031,-3.98059 -1.18601,-5.98404 -3.44966,-5.98404 -2.04108,0 -2.2855,-0.42953 -2.31559,-4.06915 -0.0748,-9.04738 -4.14649,-21.64571 -9.09083,-28.12808 -1.30069,-1.70529 -2.36489,-3.47952 -2.36489,-3.94273 0,-0.46321 1.32827,-2.10765 2.95173,-3.65431 4.3722,-4.16539 11.90509,-15.82715 14.21987,-22.01394 5.97295,-15.96413 1.78508,-29.72811 -9.56268,-31.42894 -4.90548,-0.73525 -12.56727,0.64292 -19.07048,3.4303 -18.29843,7.843 -35.65951,35.17713 -40.75689,64.16964 -0.74695,4.24841 -1.54858,7.91489 -1.78141,8.14772 -0.23283,0.23282 -3.04248,0.66082 -6.24365,0.95108 l -5.82033,0.52777 0,4.65425 0,4.65426 16.57886,0 16.57885,0 1.14134,-10.77127 c 1.59817,-15.08266 1.62001,-15.14189 5.12941,-13.91852 1.57557,0.54925 4.12463,2.73795 5.66457,4.86378 5.11937,7.06708 8.4219,22.41746 5.46017,25.3792 -0.8402,0.8402 -8.5266,1.14894 -28.60373,1.14894 l -27.45478,0 -0.59841,-2.99203 c -2.31678,-11.58391 2.92997,-36.75748 10.99493,-52.75292 12.77158,-25.33022 34.28035,-41.82468 64.04497,-49.11426 16.62294,-4.07108 15.48827,-3.57719 10.05319,-4.3759 -20.28448,-2.98091 -45.36985,1.43996 -61.1497,10.77659 -12.57063,7.43779 -25.72315,22.26514 -33.45145,37.71111 -3.11128,6.21827 -8.68627,22.23662 -10.68456,30.69938 -2.87809,12.18878 -3.25475,14.21624 -4.46321,24.02459 -1.873,15.20206 -8.33365,13.68301 58.19518,13.68301 52.56882,0 55.86147,-0.0988 55.84918,-1.67553 z m -41.72884,-49.21957 c -3.28127,-5.30921 7.55937,-27.22128 18.34337,-37.07724 7.51607,-6.86926 15.06985,-8.38478 19.17619,-3.84733 2.25801,2.49508 1.25434,10.00687 -2.19862,16.45514 -3.66977,6.85313 -16.70621,19.76785 -23.20851,22.99182 -5.44656,2.70051 -10.94229,3.37094 -12.11243,1.47761 z m 14.68625,-5.46485 c 11.88469,-9.89054 21.31098,-22.59666 21.31098,-28.72604 0,-2.9524 -2.54151,-5.87144 -5.11206,-5.87144 -6.84825,0 -19.01113,11.30369 -24.82619,23.07244 -5.90194,11.9446 -5.98079,16.18287 -0.30108,16.18287 2.58005,0 4.59371,-1.0505 8.92835,-4.65783 z m -7.41243,43.00282 c 0,-2.96871 -2.47976,-11.70644 -4.40995,-15.53898 -2.45789,-4.88033 -5.97672,-8.01508 -7.39974,-6.59206 -0.48238,0.48237 -1.08176,5.86402 -1.33196,11.9592 l -0.4549,11.08216 6.79827,0 c 3.73906,0 6.79828,-0.40964 6.79828,-0.91032 z m 31.10731,-37.10559 c 0.79523,-3.2678 1.44588,-6.17604 1.44588,-6.46277 0,-1.78468 -2.32774,0.41095 -7.47324,7.04911 l -5.86814,7.57042 1.91456,2.43397 c 1.05301,1.33868 3.0608,4.93333 4.46174,7.98809 l 2.54718,5.55412 0.76306,-9.09574 c 0.4197,-5.00266 1.41372,-11.7694 2.20896,-15.0372 z m 132.19343,-16.27902 c -0.69148,-1.80196 -2.12648,-0.8094 -3.96226,2.7406 -1.43824,2.78125 -1.38948,3.06003 1.20361,6.88077 l 2.7026,3.98208 0.28864,-6.12255 c 0.15875,-3.36741 0.0541,-6.73382 -0.23259,-7.4809 z m -60.99711,0.17154 c -2.61414,-4.43064 -4.0938,-3.80198 -4.46195,1.89574 -0.46821,7.24602 0.37782,8.30202 3.69119,4.60735 l 2.7792,-3.09903 -2.00844,-3.40406 z m 98.23177,-31.00894 c 0.8446,-1.36656 -7.10164,-7.65429 -11.24029,-8.89426 -3.62688,-1.08664 -3.79889,-1.02687 -7.09328,2.46501 -1.85694,1.96826 -3.08063,3.87429 -2.71929,4.23561 0.36133,0.36133 3.53382,0.72888 7.04998,0.81678 3.51616,0.0879 7.47015,0.60366 8.78664,1.14616 3.06548,1.26321 4.53787,1.32833 5.21624,0.2307 z"
       id="path4860"
       inkscape:connector-curvature="0" />
  </g>
</svg>
