<?xml version="1.0" encoding="UTF-8" standalone="no"?>
<!-- Created with Inkscape (http://www.inkscape.org/) -->

<svg
   xmlns:osb="http://www.openswatchbook.org/uri/2009/osb"
   xmlns:dc="http://purl.org/dc/elements/1.1/"
   xmlns:cc="http://creativecommons.org/ns#"
   xmlns:rdf="http://www.w3.org/1999/02/22-rdf-syntax-ns#"
   xmlns:svg="http://www.w3.org/2000/svg"
   xmlns="http://www.w3.org/2000/svg"
   xmlns:xlink="http://www.w3.org/1999/xlink"
   xmlns:sodipodi="http://sodipodi.sourceforge.net/DTD/sodipodi-0.dtd"
   xmlns:inkscape="http://www.inkscape.org/namespaces/inkscape"
   id="svg3590"
   version="1.1"
   inkscape:version="0.91 r13725"
   width="264"
   height="271.68747"
   viewBox="0 0 264 271.68747"
   sodipodi:docname="001.svg"
   inkscape:export-filename="/home/daniel/Не Документы/новая папка/Пацан.png"
   inkscape:export-xdpi="349.15118"
   inkscape:export-ydpi="349.15118">
  <metadata
     id="metadata3596">
    <rdf:RDF>
      <cc:Work
         rdf:about="">
        <dc:format>image/svg+xml</dc:format>
        <dc:type
           rdf:resource="http://purl.org/dc/dcmitype/StillImage" />
        <dc:title></dc:title>
      </cc:Work>
    </rdf:RDF>
  </metadata>
  <defs
     id="defs3594">
    <linearGradient
       inkscape:collect="always"
       id="linearGradient6627">
      <stop
         style="stop-color:#336d35;stop-opacity:1;"
         offset="0"
         id="stop6629" />
      <stop
         style="stop-color:#609b62;stop-opacity:0"
         offset="1"
         id="stop6631" />
    </linearGradient>
    <linearGradient
       id="linearGradient6534"
       osb:paint="solid">
      <stop
         style="stop-color:#668491;stop-opacity:1;"
         offset="0"
         id="stop6536" />
    </linearGradient>
    <linearGradient
       inkscape:collect="always"
       xlink:href="#linearGradient6627"
       id="linearGradient6633"
       x1="47.313084"
       y1="177.76169"
       x2="103.69547"
       y2="93.118919"
       gradientUnits="userSpaceOnUse"
       gradientTransform="translate(0.72580614,17.846848)" />
    <mask
       maskUnits="userSpaceOnUse"
       id="mask6670">
      <circle
         style="display:inline;opacity:1;fill:#ffffff;fill-opacity:1;fill-rule:nonzero;stroke:none;stroke-width:1;stroke-linejoin:miter;stroke-miterlimit:4;stroke-dasharray:none;stroke-dashoffset:0;stroke-opacity:1"
         id="circle6672"
         cx="131"
         cy="131.5"
         r="131" />
    </mask>
    <mask
       maskUnits="userSpaceOnUse"
       id="mask6862">
      <path
         style="display:inline;fill:#ffffff;fill-opacity:1"
         d="m 102.32012,166.48467 c -15.618289,-4.28579 -21.711413,-7.8905 -25.704356,-15.20679 -1.858117,-3.40465 -4.604646,-10.69026 -6.103396,-16.19026 -3.184981,-11.688 -2.570251,-16.78299 4.366656,-36.191604 5.802147,-16.233695 11.34585,-24.35167 20.375308,-29.836776 8.623678,-5.238609 29.067128,-12.41591 35.364828,-12.41591 6.04444,0 25.90721,6.862344 33.64679,11.624556 5.57975,3.433254 7.02671,5.242638 11.29866,14.128623 2.69466,5.60511 6.04355,14.723127 7.44196,20.262261 2.54108,10.06525 2.54113,10.07721 0.0762,20.39736 -1.35648,5.67941 -4.39081,14.49146 -6.74293,19.58233 -3.5623,7.71012 -5.26147,9.88071 -10.17314,12.9956 -10.08978,6.39873 -36.70135,13.94437 -48.44178,13.73551 -2.87693,-0.0511 -9.8091,-1.34939 -15.40483,-2.8849 z"
         id="path6864"
         inkscape:connector-curvature="0" />
    </mask>
    <filter
       inkscape:collect="always"
       style="color-interpolation-filters:sRGB"
       id="filter7047"
       x="-0.45079562"
       width="1.9015913"
       y="-0.45079562"
       height="1.9015913">
      <feGaussianBlur
         inkscape:collect="always"
         stdDeviation="3.028125"
         id="feGaussianBlur7049" />
    </filter>
    <filter
       inkscape:collect="always"
       style="color-interpolation-filters:sRGB"
       id="filter7051"
       x="-0.50577074"
       width="2.0115416"
       y="-0.50577074"
       height="2.0115416">
      <feGaussianBlur
         inkscape:collect="always"
         stdDeviation="3.028125"
         id="feGaussianBlur7053" />
    </filter>
  </defs>
  <sodipodi:namedview
     pagecolor="#aaaaaa"
     bordercolor="#666666"
     borderopacity="1"
     objecttolerance="10"
     gridtolerance="10"
     guidetolerance="10"
     inkscape:pageopacity="0"
     inkscape:pageshadow="2"
     inkscape:window-width="1920"
     inkscape:window-height="987"
     id="namedview3592"
     showgrid="true"
     inkscape:zoom="2.8371212"
     inkscape:cx="131.27419"
     inkscape:cy="97.26973"
     inkscape:window-x="0"
     inkscape:window-y="29"
     inkscape:window-maximized="1"
     inkscape:current-layer="layer4"
     fit-margin-top="0"
     fit-margin-left="0"
     fit-margin-right="0"
     fit-margin-bottom="0"
     showguides="false">
    <inkscape:grid
       type="xygrid"
       id="grid7438"
       originx="-0.72581482"
       originy="7.5661251" />
  </sodipodi:namedview>
  <g
     inkscape:groupmode="layer"
     id="layer4"
     inkscape:label="Круг"
     style="display:inline"
     transform="translate(0.27418518,-17.346848)"
     sodipodi:insensitive="true">
    <circle
       style="opacity:1;fill:#92ab93;fill-opacity:1;fill-rule:nonzero;stroke:#c6d653;stroke-width:2;stroke-linejoin:miter;stroke-miterlimit:4;stroke-dasharray:none;stroke-dashoffset:0;stroke-opacity:1"
       id="path5020"
       cx="131.72581"
       cy="149.34685"
       r="131" />
  </g>
  <g
     inkscape:groupmode="layer"
     id="layer18"
     inkscape:label="Градиент круга"
     style="display:inline;opacity:0.37700004"
     transform="translate(0.27418518,-17.346848)"
     sodipodi:insensitive="true">
    <circle
       style="display:inline;opacity:1;fill:url(#linearGradient6633);fill-opacity:1;fill-rule:nonzero;stroke:none;stroke-width:1;stroke-linejoin:miter;stroke-miterlimit:4;stroke-dasharray:none;stroke-dashoffset:0;stroke-opacity:1"
       id="path5020-7"
       cx="131.72581"
       cy="149.34685"
       r="131" />
  </g>
  <g
     inkscape:groupmode="layer"
     id="layer3"
     inkscape:label="Силуэт"
     style="display:inline"
     transform="translate(0.27418518,-17.346848)"
     sodipodi:insensitive="true">
    <path
       style="display:inline;fill:#5d889a;fill-opacity:1;stroke:#252525;stroke-width:1.5;stroke-miterlimit:4;stroke-dasharray:none;stroke-opacity:1"
       d="m 117.83214,266.7395 c -3.47438,-0.63148 -19.968451,-7.07988 -23.96856,-6.85394 -24.190997,1.36641 -47.104568,-22.61828 -62.20946,-35.65671 -5.18289,-4.47383 -2.267942,-10.34442 -6.385825,-15.4831 -5.623552,-7.0176 -6.456564,-8.73341 -5.766139,-11.8769 5.909044,-13.7197 18.935461,-22.52477 31.12253,-28.07796 3.757571,-1.71875 7.852366,-3.13361 9.099544,-3.14414 4.682491,-0.0395 5.851995,-1.8508 3.723454,-5.76671 -1.073012,-1.97404 -2.677903,-4.9954 -3.566428,-6.71415 -1.171442,-2.26602 -1.555887,-9.30964 -1.398632,-25.625 0.184257,-19.11672 0.787676,-25.58029 4.012951,-42.985049 2.406914,-12.988576 4.594682,-21.451131 5.978356,-23.125 5.391725,-6.522521 12.28426,-13.264955 13.560263,-13.264955 0.768266,0 2.687852,-1.374212 4.265748,-3.053805 3.453933,-3.676544 10.089942,-5.238954 27.279868,-6.42289 10.61107,-0.730825 13.19187,-0.5539 14.98997,1.027626 1.19462,1.050745 7.74816,2.846867 14.5634,3.99138 6.81525,1.144515 14.79993,3.178174 17.74376,4.519243 7.118,3.24262 15.1772,13.33883 22.15599,27.75605 5.46926,11.298735 6.75087,15.076197 9.43445,27.8074 2.65198,12.58138 2.74203,15.17249 0.83903,24.14423 -1.06677,5.02931 -1.93958,11.24493 -1.93958,13.8125 0,2.56755 -0.48988,5.20265 -1.08862,5.85577 -0.59873,0.65313 -1.45321,2.73438 -1.89881,4.625 -0.66655,2.82801 -1.83221,5.24131 0.12143,5.24131 1.30607,0 12.53286,1.03482 23.1847,4.50424 14.86101,4.84043 20.53391,7.30694 24.38267,10.60134 7.36233,6.30187 18.73762,19.36567 12.87193,28.72087 -22.29875,35.56431 -39.20612,53.39324 -78.06042,58.05781 -18.44557,-1.39764 -42.60552,19.26739 -53.04757,7.38554 z"
       id="path4985"
       inkscape:connector-curvature="0"
       sodipodi:nodetypes="csssccsssssssssssssssscssssscc"
       mask="url(#mask6670)"
       transform="translate(0.72580614,17.846848)" />
  </g>
  <g
     inkscape:groupmode="layer"
     id="layer1"
     inkscape:label="Лицо"
     style="display:inline"
     transform="translate(0.27418518,-17.346848)"
     sodipodi:insensitive="true">
    <path
       style="display:inline;fill:#968b79;fill-opacity:1"
       d="m 103.04592,184.33152 c -15.618283,-4.28579 -21.711407,-7.8905 -25.70435,-15.20679 -1.858117,-3.40465 -4.604646,-10.69026 -6.103396,-16.19026 -3.184981,-11.688 -2.570251,-16.78299 4.366656,-36.19161 5.802147,-16.23369 11.34585,-24.351666 20.375308,-29.836772 8.623672,-5.238609 29.067122,-12.41591 35.364822,-12.41591 6.04444,0 25.90721,6.862344 33.64679,11.624556 5.57975,3.433254 7.02671,5.242638 11.29866,14.128626 2.69466,5.60511 6.04355,14.72312 7.44196,20.26226 2.54108,10.06525 2.54113,10.07721 0.0762,20.39736 -1.35648,5.67941 -4.39081,14.49146 -6.74293,19.58233 -3.5623,7.71012 -5.26147,9.88071 -10.17314,12.9956 -10.08978,6.39873 -36.70135,13.94437 -48.44178,13.73551 -2.87693,-0.0511 -9.8091,-1.34939 -15.40483,-2.8849 z"
       id="path4168"
       inkscape:connector-curvature="0" />
  </g>
  <g
     inkscape:groupmode="layer"
     id="layer21"
     inkscape:label="Чёлка"
     style="display:inline"
     transform="translate(0.27418518,-17.346848)"
     sodipodi:insensitive="true">
    <path
       style="display:inline;fill:#000000;fill-opacity:1"
       d="m 129.21289,56.220703 c -0.42837,0 -0.64258,0.225296 -0.64258,0.675781 0,0.450485 -0.21422,0.675782 -0.64258,0.675782 -0.42836,0 -0.64257,0.225296 -0.64257,0.675781 l 0,1.351562 0,1.351563 c 0,0.450485 -0.21422,0.675781 -0.64258,0.675781 -0.42837,0 -0.64258,0.225296 -0.64258,0.675781 l 0,1.351563 0,1.351562 0,1.351563 0,1.349609 0,1.351563 0,1.351562 0,1.351563 0,1.351562 0,1.351563 c 0,0.450485 0.21421,0.675781 0.64258,0.675781 0.42836,0 0.64258,-0.225296 0.64258,-0.675781 l 0,-1.351563 0,-1.351562 0,-1.351563 0,-1.351562 0,-1.351563 0,-1.349609 0,-1.351563 0,-1.351562 c 0,-0.450485 0.21421,-0.675781 0.64257,-0.675781 0.42836,0 0.64258,-0.225296 0.64258,-0.675782 l 0,-1.351562 0,-1.351563 c 0,-0.450485 0.21421,-0.675781 0.64258,-0.675781 0.42837,0 0.64258,-0.225296 0.64258,-0.675781 l 0,-1.351563 c 0,-0.450485 -0.21421,-0.675781 -0.64258,-0.675781 z m 3.85547,0 c -0.42836,0 -0.64258,0.225296 -0.64258,0.675781 0,0.450485 -0.21421,0.675782 -0.64258,0.675782 -0.42836,0 -0.64257,0.225296 -0.64258,0.675781 l 0,1.351562 0,1.351563 c 10e-6,0.450485 -0.21421,0.675781 -0.64257,0.675781 -0.42837,0 -0.64258,0.225296 -0.64258,0.675781 l 0,1.351563 0,1.351562 0,1.351563 0,1.349609 c 0,0.450486 -0.21421,0.675781 -0.64258,0.675781 -0.42837,10e-7 -0.64258,0.225296 -0.64258,0.675782 l 0,1.351562 0,1.351563 0,1.351562 0,1.351563 c 0,0.450485 0.21421,0.675781 0.64258,0.675781 0.42837,0 0.64258,-0.225296 0.64258,-0.675781 l 0,-1.351563 0,-1.351562 0,-1.351563 c 0,-0.450485 0.21421,-0.675781 0.64258,-0.675781 0.42836,0 0.64257,-0.225297 0.64257,-0.675781 l 0,-1.351563 0,-1.349609 0,-1.351563 0,-1.351562 c 10e-6,-0.450485 0.21422,-0.675781 0.64258,-0.675781 0.42837,0 0.64258,-0.225296 0.64258,-0.675782 l 0,-1.351562 0,-1.351563 c 0,-0.450485 0.21422,-0.675781 0.64258,-0.675781 0.42837,0 0.64258,-0.225296 0.64258,-0.675781 l 0,-1.351563 c 0,-0.450485 -0.21421,-0.675781 -0.64258,-0.675781 z m 3.85547,0 c -0.42837,0 -0.64258,0.225296 -0.64258,0.675781 0,0.450485 -0.21421,0.675782 -0.64258,0.675782 -0.42836,0 -0.64258,0.225296 -0.64258,0.675781 l 0,1.351562 0,1.351563 0,1.351562 c 0,0.450486 -0.21421,0.675782 -0.64257,0.675782 -0.42837,0 -0.64258,0.225296 -0.64258,0.675781 l 0,1.351562 0,1.351563 0,1.349609 0,1.351563 0,1.351562 0,1.351563 0,1.351562 0,1.351563 c 0,0.450485 0.21421,0.675781 0.64258,0.675781 0.42836,0 0.64257,0.225297 0.64257,0.675781 0,0.450486 0.21422,0.675782 0.64258,0.675782 0.42837,0 0.64258,-0.225296 0.64258,-0.675782 l 0,-1.351562 c 0,-0.450486 -0.21421,-0.675782 -0.64258,-0.675782 -0.42836,0 -0.64258,-0.225296 -0.64258,-0.675781 l 0,-1.351562 0,-1.351563 0,-1.351562 0,-1.351563 0,-1.349609 0,-1.351563 c 0,-0.450484 0.21422,-0.675781 0.64258,-0.675781 0.42837,0 0.64258,-0.225296 0.64258,-0.675781 l 0,-1.351563 0,-1.351562 0,-1.351563 c 0,-0.450485 0.21421,-0.675781 0.64258,-0.675781 0.42836,0 0.64258,-0.225296 0.64258,-0.675781 l 0,-1.351563 c 0,-0.450485 -0.21422,-0.675781 -0.64258,-0.675781 z m -12.85156,1.351563 c -0.42837,0 -0.64258,0.225296 -0.64258,0.675781 0,0.450485 -0.21422,0.675781 -0.64258,0.675781 -0.42837,0 -0.64258,0.225296 -0.64258,0.675781 l 0,1.351563 0,1.351562 c 0,0.450486 -0.21421,0.675782 -0.64258,0.675782 -0.42836,0 -0.64257,0.225296 -0.64257,0.675781 l 0,1.351562 0,1.351563 0,1.349609 0,1.351563 0,1.351562 0,1.351563 0,1.351562 0,1.351563 c 0,0.450485 0.21421,0.675781 0.64257,0.675781 0.42837,0 0.64258,-0.225296 0.64258,-0.675781 l 0,-1.351563 0,-1.351562 0,-1.351563 0,-1.351562 0,-1.351563 0,-1.349609 0,-1.351563 c 0,-0.450484 0.21421,-0.675781 0.64258,-0.675781 0.42836,0 0.64258,-0.225296 0.64258,-0.675781 l 0,-1.351563 0,-1.351562 c 0,-0.450485 0.21421,-0.675781 0.64258,-0.675781 0.42836,0 0.64257,-0.225297 0.64257,-0.675782 l 0,-1.351562 c 0,-0.450485 -0.21421,-0.675781 -0.64257,-0.675781 z m 17.99218,0 c -0.42836,0 -0.64257,0.225296 -0.64257,0.675781 l 0,1.351562 0,1.351563 c 0,0.450485 -0.21422,0.675781 -0.64258,0.675781 -0.42836,0 -0.64258,0.225296 -0.64258,0.675781 l 0,1.351563 0,1.351562 0,1.351563 0,1.349609 0,0.675781 0.64258,0 c 0.42836,0 0.64257,-0.225295 0.64258,-0.675781 l 0,-1.349609 0,-1.351563 0,-1.351562 c 0,-0.450485 0.21421,-0.675781 0.64257,-0.675781 0.42837,0 0.64063,-0.225296 0.64063,-0.675782 l 0,-1.351562 0,-1.351563 0,-1.351562 c 0,-0.450485 -0.21226,-0.675781 -0.64063,-0.675781 z m -1.92773,10.810546 -0.64258,0 c -0.42837,0 -0.64258,0.225296 -0.64258,0.675782 l 0,1.351562 0,1.351563 0,1.351562 0,1.351563 0,1.351562 0,1.351563 c 0,0.450485 0.21421,0.675781 0.64258,0.675781 0.42837,0 0.64258,-0.225296 0.64258,-0.675781 l 0,-1.351563 0,-1.351562 0,-1.351563 0,-1.351562 0,-1.351563 0,-1.351562 0,-0.675782 z m -25.06055,-8.107421 c -0.42836,0 -0.64258,0.225296 -0.64258,0.675781 0,0.450485 -0.21421,0.675781 -0.64257,0.675781 -0.42837,0 -0.64258,0.225296 -0.64258,0.675781 l 0,1.351563 c 0,0.450485 -0.21422,0.675781 -0.64258,0.675781 -0.42837,0 -0.64258,0.225297 -0.64258,0.675781 l 0,1.351563 0,1.349609 0,1.351563 0,1.351562 0,1.351563 0,1.351562 c 0,0.450485 0.21421,0.675781 0.64258,0.675781 0.42836,0 0.64258,-0.225296 0.64258,-0.675781 l 0,-1.351562 0,-1.351563 0,-1.351562 0,-1.351563 0,-1.349609 c 0,-0.450485 0.21421,-0.675781 0.64258,-0.675781 0.42836,0 0.64257,-0.225296 0.64257,-0.675782 l 0,-1.351562 c 0,-0.450485 0.21422,-0.675781 0.64258,-0.675781 0.42836,0 0.64258,-0.225296 0.64258,-0.675782 l 0,-1.351562 c 0,-0.450485 -0.21422,-0.675781 -0.64258,-0.675781 z m 32.12695,0 c -0.42836,0 -0.64257,0.225296 -0.64257,0.675781 l 0,1.351562 c 0,0.450486 -0.21421,0.675782 -0.64258,0.675782 -0.42836,0 -0.64258,0.225296 -0.64258,0.675781 l 0,1.351562 0,1.351563 0,1.349609 c 0,0.450486 -0.21421,0.675781 -0.64258,0.675781 -0.42836,0 -0.64258,0.225296 -0.64258,0.675782 l 0,1.351562 0,1.351563 0,1.351562 0,1.351563 0,1.351562 0,1.351563 0,1.351562 0,1.351563 c 0,0.450485 0.21422,0.675781 0.64258,0.675781 0.42837,0 0.64258,-0.225296 0.64258,-0.675781 l 0,-1.351563 0,-1.351562 0,-1.351563 0,-1.351562 0,-1.351563 0,-1.351562 0,-1.351563 c 0,-0.450485 0.21422,-0.675781 0.64258,-0.675781 0.42837,0 0.64258,-0.225297 0.64258,-0.675781 l 0,-1.351563 0,-1.349609 0,-1.351563 c 0,-0.450484 0.21421,-0.675781 0.64257,-0.675781 0.42838,0 0.64258,-0.225296 0.64258,-0.675781 l 0,-1.351563 0,-1.351562 c 0,-0.450485 -0.2142,-0.675781 -0.64258,-0.675781 z m -37.26757,1.351562 c -0.42837,0 -0.64258,0.225296 -0.64258,0.675781 l 0,1.351563 0,1.351562 c 0,0.450486 -0.21421,0.675782 -0.64258,0.675782 -0.42836,0 -0.64258,0.225296 -0.64258,0.675781 l 0,1.349609 0,1.351563 0,1.351562 0,1.351563 0,1.351562 c 0,0.450485 0.21422,0.675781 0.64258,0.675781 0.42837,0 0.64258,-0.225296 0.64258,-0.675781 l 0,-1.351562 0,-1.351563 0,-1.351562 0,-1.351563 c 0,-0.450484 0.21421,-0.675781 0.64258,-0.675781 0.42836,0 0.64257,-0.223343 0.64257,-0.673828 l 0,-1.351563 0,-1.351562 0,-1.351563 c 0,-0.450485 -0.21421,-0.675781 -0.64257,-0.675781 z m 41.12304,0 c -0.42836,0 -0.64257,0.225296 -0.64257,0.675781 l 0,1.351563 c 0,0.450485 -0.21422,0.675781 -0.64258,0.675781 -0.42837,0 -0.64258,0.225297 -0.64258,0.675781 l 0,1.351563 0,1.349609 0,1.351563 0,1.351562 0,0.675782 0.64258,0 c 0.42836,0 0.64258,-0.225297 0.64258,-0.675782 l 0,-1.351562 0,-1.351563 0,-1.349609 c 0,-0.450485 0.21421,-0.675781 0.64257,-0.675781 0.42837,0 0.64258,-0.225296 0.64258,-0.675782 l 0,-1.351562 0,-1.351563 c 0,-0.450485 -0.21421,-0.675781 -0.64258,-0.675781 z m -1.92773,9.458985 -0.64258,0 c -0.42836,0 -0.64258,0.225295 -0.64258,0.675781 l 0,1.351562 0,1.351563 0,1.351562 0,1.351563 c 0,0.450485 -0.2142,0.675781 -0.64258,0.675781 -0.42836,0 -0.64257,0.225297 -0.64257,0.675781 l 0,1.351563 c 0,0.450485 0.21421,0.675781 0.64257,0.675781 0.42838,0 0.64258,-0.225296 0.64258,-0.675781 0,-0.450485 0.21422,-0.675782 0.64258,-0.675782 0.42837,10e-7 0.64258,-0.225295 0.64258,-0.675781 l 0,-1.351562 0,-1.351563 0,-1.351562 0,-1.351563 0,-1.351562 0,-0.675781 z m -43.05078,-8.107422 c -0.42837,0 -0.64258,0.225296 -0.64258,0.675781 0,0.450485 -0.21422,0.675781 -0.64258,0.675781 -0.42836,0 -0.64258,0.225297 -0.64258,0.675781 l 0,1.351563 0,1.349609 0,1.351563 c 0,0.450484 -0.21421,0.675781 -0.64257,0.675781 -0.42837,0 -0.64258,0.225296 -0.64258,0.675781 l 0,1.351563 0,1.351562 0,1.351563 c 0,0.450485 0.21421,0.675781 0.64258,0.675781 0.42836,0 0.64257,-0.225296 0.64257,-0.675781 l 0,-1.351563 0,-1.351562 c 0,-0.450486 0.21422,-0.675781 0.64258,-0.675781 0.42836,0 0.64258,-0.225297 0.64258,-0.675782 l 0,-1.351562 0,-1.351563 0,-1.349609 c 0,-0.450485 0.21421,-0.675781 0.64258,-0.675781 0.42836,0 0.64258,-0.225296 0.64258,-0.675782 l 0,-1.351562 c 0,-0.450485 -0.21422,-0.675781 -0.64258,-0.675781 z"
       id="path6770"
       inkscape:connector-curvature="0"
       mask="url(#mask6862)"
       transform="translate(0.72580614,17.846848)" />
  </g>
  <g
     inkscape:groupmode="layer"
     id="layer22"
     inkscape:label="Щёчки"
     style="display:inline;opacity:0.56800022"
     transform="translate(0.27418518,-17.346848)"
     sodipodi:insensitive="true">
    <circle
       style="opacity:1;fill:#ad5252;fill-opacity:1;fill-rule:nonzero;stroke:none;stroke-width:0.60000002;stroke-linejoin:miter;stroke-miterlimit:4;stroke-dasharray:none;stroke-dashoffset:0;stroke-opacity:1;filter:url(#filter7047)"
       id="path6867"
       cx="165.09497"
       cy="146.11787"
       r="8.0607481" />
    <circle
       style="opacity:1;fill:#ad5252;fill-opacity:1;fill-rule:nonzero;stroke:none;stroke-width:0.60000002;stroke-linejoin:miter;stroke-miterlimit:4;stroke-dasharray:none;stroke-dashoffset:0;stroke-opacity:1;filter:url(#filter7051)"
       id="path6869"
       cx="86.039719"
       cy="123.18925"
       r="7.1845794"
       transform="matrix(0.89087365,0,0,0.89087365,11.69211,32.867144)" />
  </g>
  <g
     inkscape:groupmode="layer"
     id="layer2"
     inkscape:label="Нос"
     style="display:inline"
     transform="translate(0.27418518,-17.346848)"
     sodipodi:insensitive="true">
    <path
       style="display:inline;fill:#626262;fill-opacity:1"
       d="m 125.40746,135.71944 c -5.27432,-1.01393 -6.5625,-1.74593 -6.5625,-3.72911 0,-3.29536 6.09389,-14.35348 8.3969,-15.23723 3.85779,-1.48037 3.9148,0.92788 0.17873,7.54786 -2.13318,3.77977 -3.59378,7.15703 -3.24578,7.50502 0.34799,0.34799 4.33713,1.24656 8.86475,1.99681 4.52763,0.75025 7.9341,1.84618 7.56995,2.43539 -0.82234,1.33056 -6.60966,1.13309 -15.20205,-0.51874 z"
       id="path6674"
       inkscape:connector-curvature="0" />
  </g>
  <g
     inkscape:groupmode="layer"
     id="layer6"
     inkscape:label="Рот"
     style="display:inline"
     transform="translate(0.27418518,-17.346848)"
     sodipodi:insensitive="true">
    <path
       style="display:inline;fill:#875b5b;fill-opacity:1"
       d="m 107.59496,160.63872 c -4.23663,-0.78201 -8.557954,-1.5537 -12.499993,-3.34541 -1.041667,-0.6013 -2.083333,-1.20259 -3.125,-1.80389 2.659629,-0.45034 5.447223,-0.91098 8.035343,0.16165 5.40618,2.53733 11.51175,2.91905 17.4005,3.05047 4.81044,0.0783 9.60459,-0.53799 14.27074,-1.69272 6.29219,-1.15673 12.68252,-2.13752 19.09575,-1.96657 2.19967,-0.2477 2.04842,1.35196 0.0303,1.52251 -7.63719,2.22602 -15.51148,3.55585 -23.38369,4.6369 -6.57849,0.93988 -13.28006,0.39203 -19.82396,-0.56294 z"
       id="path6692"
       inkscape:connector-curvature="0" />
  </g>
  <g
     inkscape:groupmode="layer"
     id="layer7"
     inkscape:label="Глаза"
     style="display:inline"
     transform="translate(0.27418518,-17.346848)"
     sodipodi:insensitive="true">
    <path
       style="display:inline;fill:#828282;fill-opacity:1;stroke:#474747;stroke-width:0.60000002;stroke-miterlimit:4;stroke-dasharray:none;stroke-opacity:1"
       d="m 106.49732,114.93008 c -2.16501,-1.37129 -0.73599,-3.87061 2.21308,-3.87061 2.87807,0 3.87649,1.06657 3.0397,3.2472 -0.76362,1.98997 -2.7273,2.22303 -5.25278,0.62341 z m 43.74999,0 c -2.165,-1.37129 -0.73597,-3.87061 2.21309,-3.87061 2.87807,0 3.87649,1.06657 3.0397,3.2472 -0.76363,1.98997 -2.7273,2.22303 -5.25279,0.62341 z"
       id="path6710"
       inkscape:connector-curvature="0" />
  </g>
  <g
     inkscape:groupmode="layer"
     id="layer9"
     inkscape:label="Брови"
     style="display:inline"
     transform="translate(0.27418518,-17.346848)"
     sodipodi:insensitive="true">
    <path
       style="display:inline;fill:#626262;fill-opacity:1"
       d="m 161.51357,105.91189 c -3.71872,-3.38095 -4.87802,-3.75762 -10,-3.24917 -3.18648,0.31632 -7.05923,0.99435 -8.60611,1.50673 -4.17921,1.3843 -3.51304,-1.43352 0.87543,-3.70288 4.29597,-2.221537 7.69522,-2.377002 13.95488,-0.638228 4.63852,1.288458 11.10719,6.338588 11.10719,8.671438 0,2.37557 -3.06014,1.29538 -7.33139,-2.58789 z m -65.168603,-0.81904 c 0,-2.14279 10.952953,-6.533382 16.298443,-6.533382 5.26251,0 12.45155,2.905342 12.45155,5.032102 0,1.86253 -3.13385,1.45525 -7.32912,-0.95251 -3.60625,-2.0697 -4.06047,-2.06281 -9.7888,0.14863 -8.062837,3.11267 -11.632073,3.81999 -11.632073,2.30516 z"
       id="path6727"
       inkscape:connector-curvature="0" />
  </g>
  <g
     inkscape:groupmode="layer"
     id="layer24"
     inkscape:label="Белки"
     style="display:inline"
     transform="translate(0.27418518,-17.346848)"
     sodipodi:insensitive="true">
    <ellipse
       style="opacity:1;fill:#e6e6e6;fill-opacity:1;fill-rule:nonzero;stroke:none;stroke-width:0.60000002;stroke-linejoin:miter;stroke-miterlimit:4;stroke-dasharray:none;stroke-dashoffset:0;stroke-opacity:1"
       id="path7076"
       cx="108.83492"
       cy="113.24768"
       rx="1.9811462"
       ry="1.4004654" />
    <ellipse
       style="opacity:1;fill:#ececec;fill-opacity:1;fill-rule:nonzero;stroke:none;stroke-width:0.60000002;stroke-linejoin:miter;stroke-miterlimit:4;stroke-dasharray:none;stroke-dashoffset:0;stroke-opacity:1"
       id="path7078"
       cx="152.68047"
       cy="113.25946"
       rx="1.9811462"
       ry="1.3663077" />
  </g>
  <g
     inkscape:groupmode="layer"
     id="layer23"
     inkscape:label="Зрачки"
     style="display:inline"
     transform="translate(0.27418518,-17.346848)"
     sodipodi:insensitive="true">
    <circle
       style="opacity:1;fill:#000000;fill-opacity:1;fill-rule:nonzero;stroke:none;stroke-width:0.60000002;stroke-linejoin:miter;stroke-miterlimit:4;stroke-dasharray:none;stroke-dashoffset:0;stroke-opacity:1"
       id="path7058"
       cx="108.86148"
       cy="113.24117"
       r="0.99197686" />
    <circle
       style="opacity:1;fill:#000000;fill-opacity:1;fill-rule:nonzero;stroke:none;stroke-width:0.60000002;stroke-linejoin:miter;stroke-miterlimit:4;stroke-dasharray:none;stroke-dashoffset:0;stroke-opacity:1"
       id="path7058-5"
       cx="152.74281"
       cy="113.19062"
       r="0.99197686" />
  </g>
  <g
     inkscape:groupmode="layer"
     id="layer25"
     inkscape:label="Канты куртки"
     style="display:inline"
     transform="translate(0.27418518,-17.346848)"
     sodipodi:insensitive="true">
    <path
       style="display:inline;fill:#000000"
       d="m 142.69912,191.83732 c 0.28647,-0.25969 5.80734,-1.98118 12.26863,-3.82554 13.52364,-3.8603 24.35207,-9.0006 30.6981,-14.57247 4.93772,-4.33539 5.96872,-3.89327 1.61661,0.69325 -4.48849,4.73021 -18.13275,11.47606 -30.25846,14.96006 -10.18196,2.92551 -15.6881,3.9805 -14.32488,2.7447 z m -47.459487,-3.43785 c -9.260573,-1.53795 -18.680039,-4.46951 -23.894666,-7.43656 -3.292482,-1.87339 -3.601773,-2.2862 -1.25,-1.6684 1.71875,0.45151 3.700673,1.27768 4.404273,1.83595 2.020168,1.60286 20.355509,6.04276 29.97072,7.25741 6.77405,0.85574 7.47975,1.10806 3.125,1.11735 -3.09375,0.006 -8.653643,-0.49099 -12.355327,-1.10575 z"
       id="path7080"
       inkscape:connector-curvature="0" />
  </g>
  <g
     inkscape:groupmode="layer"
     id="layer13"
     inkscape:label="Полосы"
     style="display:inline"
     transform="translate(0.27418518,-17.346848)"
     sodipodi:insensitive="true">
    <path
       style="display:inline;fill:#496a78;fill-opacity:1"
       d="m 83.127377,219.39393 c -0.424004,-5.8687 2.123225,-11.53171 1.937032,-17.43619 -1.562145,-4.60131 6.001581,-8.64344 5.86345,-2.38769 -0.240789,6.71437 -0.773419,13.76658 -3.609486,19.92692 -0.987116,1.66069 -3.603657,2.19955 -4.190996,-0.10304 z m 58.749993,0 c -0.42403,-5.8687 2.12325,-11.53171 1.93703,-17.43619 -1.56212,-4.6013 6.00159,-8.64344 5.86346,-2.38769 -0.24079,6.71437 -0.77342,13.76658 -3.60949,19.92692 -0.98712,1.66069 -3.60366,2.19955 -4.191,-0.10304 z m 58.85082,0.42888 c -0.5929,-6.76936 1.89532,-13.38874 2.27067,-20.13907 1.53168,-7.47969 7.05707,2.25485 5.17926,5.91732 -0.9396,5.20499 -1.23765,11.17118 -4.79662,15.3504 -1.03117,0.80904 -2.17081,-0.22605 -2.65331,-1.12865 z M 76.073625,215.80833 c -0.423956,-8.36803 0.805857,-16.80966 2.2388,-25.05046 3.584849,-6.08431 4.76311,5.70724 4.16241,8.49698 -0.402502,5.5849 -0.258077,11.46884 -2.413792,16.71451 -0.766973,1.60324 -3.322037,1.42777 -3.987418,-0.16103 z m 58.749995,0 c -0.42395,-8.36803 0.80586,-16.80966 2.2388,-25.05046 3.58484,-6.08432 4.76311,5.70723 4.16241,8.49698 -0.40251,5.5849 -0.25808,11.46884 -2.41379,16.71451 -0.76697,1.60324 -3.32204,1.42777 -3.98742,-0.16103 z m 58.74999,0 c -0.42395,-8.36803 0.80586,-16.80966 2.2388,-25.05046 3.58484,-6.08432 4.76311,5.70723 4.16241,8.49698 -0.40251,5.5849 -0.25808,11.46884 -2.41379,16.71451 -0.76697,1.60324 -3.32204,1.42777 -3.98742,-0.16103 z M 63.4283,212.72613 c -1.653858,-4.93181 -0.312702,-10.36448 0.251649,-15.41956 0.358838,-3.45145 2.176393,-14.30608 6.738579,-8.99394 0.0062,7.22536 -1.347738,14.44451 -2.748758,21.52052 -0.372294,2.01384 -1.94498,5.67495 -4.24147,2.89298 z m 58.52658,1.92248 c -2.13653,-5.66247 0.55648,-15.87912 1.40339,-21.6032 -0.66043,-3.41781 3.23345,-7.5056 5.88441,-4.03461 -0.45587,7.33204 -1.02587,14.04097 -2.95817,21.14343 -0.71495,3.17995 -3.56935,6.99591 -4.32963,4.49438 z m 58.97341,-1.92248 c -1.65386,-4.93181 -0.31271,-10.36448 0.25164,-15.41956 0.35884,-3.45145 2.1764,-14.30608 6.73858,-8.99394 0.006,7.22536 -1.34773,14.44451 -2.74875,21.52052 -0.3723,2.01383 -1.94498,5.67495 -4.24147,2.89298 z"
       id="path7188"
       inkscape:connector-curvature="0"
       sodipodi:nodetypes="ccccccccccccccccccccccccccccccccccccccccccccc" />
  </g>
  <g
     inkscape:groupmode="layer"
     id="layer27"
     inkscape:label="Молния"
     style="display:inline"
     transform="translate(0.27418518,-17.346848)"
     sodipodi:insensitive="true">
    <path
       style="display:inline;fill:#a0a0a0;fill-opacity:1;stroke:#000000;stroke-opacity:1"
       d="m 117.66477,218.71236 q 0.34403,-0.31344 0.86009,-0.47015 0.51605,-0.15672 1.20411,-0.15672 0.68807,0 1.20412,0.15672 0.51605,0.15671 0.86009,0.47015 0.34403,0.31343 0.68807,0.62687 0.34403,0.31343 0.68806,0.62687 0.34404,0.31343 0.68807,0.62687 0.34404,0.31343 0.51605,0.78358 0.17202,0.47016 0.17202,1.09703 0,0.62686 0,1.25373 0,0.62687 0,1.25374 0,0.62687 0,1.25374 0,0.62687 0,1.25374 0,0.62687 0,1.25374 0,0.62687 0,1.25374 0,0.62687 0,1.25374 0,0.62686 0,1.25373 0,0.62687 0,1.25374 0,0.62687 0,1.25374 0,0.62687 0,1.25374 0,0.62687 0,1.25374 0,0.62687 0,1.25374 0,0.62687 0,1.25374 0,0.62686 0,1.25373 0,0.62687 0,1.25374 0,0.62687 0,1.25374 0,0.62687 0,1.25374 0,0.62687 0,1.25374 0,0.62687 0,1.25374 0,0.62687 0,1.25374 0,0.62686 0,1.25373 0,0.62687 0,1.25374 0,0.62687 0,1.25374 0,0.62687 0,1.25374 0,0.62687 0,1.25374 0,0.62687 0,1.25374 0,0.62687 0,1.25374 0,0.62687 0,1.25373 0,0.62687 0,1.25374 0,0.62687 0,1.25374 0,0.62687 0,1.25374 0,0.62687 0,1.25374 0,0.62687 0,1.25374 0,0.62687 0,1.25374 0,0.62687 0,1.25373 0,0.62687 0,1.25374 0,0.62687 0,1.25374 0,0.62687 0,1.25374 0,0.62687 0,1.25374 0,0.62687 0,1.25374 0,0.62687 0,1.25374 0,0.62687 0,1.25373 l 0,0.62687 -0.68807,0 -0.68807,0 -0.68806,0 -0.68807,0 -0.68807,0 -0.68807,0 -0.68807,0 -0.68806,0 -0.68807,0 -0.68807,0 -0.68807,0 -0.68806,0 -0.68807,0 -0.68807,0 0,-0.62687 q 0,-0.62686 0,-1.25373 0,-0.62687 0,-1.25374 0,-0.62687 0,-1.25374 0,-0.62687 0,-1.25374 0,-0.62687 0,-1.25374 0,-0.62687 0,-1.25374 0,-0.62687 0,-1.25374 0,-0.62686 0,-1.25373 0,-0.62687 0,-1.25374 0,-0.62687 0,-1.25374 0,-0.62687 0,-1.25374 0,-0.62687 0,-1.25374 0,-0.62687 0,-1.25374 0,-0.62687 0,-1.25374 0,-0.62686 0,-1.25373 0,-0.62687 0,-1.25374 0,-0.62687 0,-1.25374 0,-0.62687 0,-1.25374 0,-0.62687 0,-1.25374 0,-0.62687 0,-1.25374 0,-0.62687 0,-1.25374 0,-0.62687 0,-1.25373 0,-0.62687 0,-1.25374 0,-0.62687 0,-1.25374 0,-0.62687 0,-1.25374 0,-0.62687 0,-1.25374 0,-0.62687 0,-1.25374 0,-0.62687 0,-1.25374 0,-0.62687 0,-1.25373 0,-0.62687 0,-1.25374 0,-0.62687 0,-1.25374 0,-0.62687 0,-1.25374 0,-0.62687 0,-1.25374 0,-0.62687 0,-1.25374 0,-0.62687 0,-1.25374 0,-0.62687 0,-1.25373 0,-0.62687 0,-1.25374 0,-0.62687 0,-1.25374 0,-0.62687 0,-1.25374 0,-0.62687 0,-1.25374 0,-0.62687 0,-1.25374 0,-0.62687 0,-1.25374 0,-0.62687 0,-1.25373 0,-0.62687 0.17202,-1.09703 0.17201,-0.47015 0.51605,-0.78358 0.34403,-0.31344 0.68807,-0.62687 0.34403,-0.31344 0.68806,-0.62687 0.34404,-0.31344 0.68807,-0.62687"
       id="path7212"
       inkscape:connector-curvature="0" />
  </g>
  <g
     inkscape:groupmode="layer"
     id="layer15"
     inkscape:label="Точки молнии"
     style="display:inline"
     transform="translate(0.27418518,-17.346848)"
     sodipodi:insensitive="true">
    <path
       style="display:inline;fill:#626262;fill-opacity:1"
       d="m 115.24683,273.61788 c 0,-0.6875 0.5625,-1.25 1.25,-1.25 0.6875,0 1.25,0.5625 1.25,1.25 0,0.6875 -0.5625,1.25 -1.25,1.25 -0.6875,0 -1.25,-0.5625 -1.25,-1.25 z m 6.25,0 c 0,-0.6875 0.5625,-1.25 1.25,-1.25 0.6875,0 1.25,0.5625 1.25,1.25 0,0.6875 -0.5625,1.25 -1.25,1.25 -0.6875,0 -1.25,-0.5625 -1.25,-1.25 z m -6.25,-6.25 c 0,-0.6875 0.5625,-1.25 1.25,-1.25 0.6875,0 1.25,0.5625 1.25,1.25 0,0.6875 -0.5625,1.25 -1.25,1.25 -0.6875,0 -1.25,-0.5625 -1.25,-1.25 z m 6.25,0 c 0,-0.6875 0.5625,-1.25 1.25,-1.25 0.6875,0 1.25,0.5625 1.25,1.25 0,0.6875 -0.5625,1.25 -1.25,1.25 -0.6875,0 -1.25,-0.5625 -1.25,-1.25 z m -6.25,-6.25 c 0,-0.6875 0.5625,-1.25 1.25,-1.25 0.6875,0 1.25,0.5625 1.25,1.25 0,0.6875 -0.5625,1.25 -1.25,1.25 -0.6875,0 -1.25,-0.5625 -1.25,-1.25 z m 6.25,0 c 0,-0.6875 0.5625,-1.25 1.25,-1.25 0.6875,0 1.25,0.5625 1.25,1.25 0,0.6875 -0.5625,1.25 -1.25,1.25 -0.6875,0 -1.25,-0.5625 -1.25,-1.25 z m -6.25,-6.25 c 0,-0.6875 0.5625,-1.25 1.25,-1.25 0.6875,0 1.25,0.5625 1.25,1.25 0,0.6875 -0.5625,1.25 -1.25,1.25 -0.6875,0 -1.25,-0.5625 -1.25,-1.25 z m 6.25,0 c 0,-0.6875 0.5625,-1.25 1.25,-1.25 0.6875,0 1.25,0.5625 1.25,1.25 0,0.6875 -0.5625,1.25 -1.25,1.25 -0.6875,0 -1.25,-0.5625 -1.25,-1.25 z m -6.25,-6.25 c 0,-0.6875 0.5625,-1.25 1.25,-1.25 0.6875,0 1.25,0.5625 1.25,1.25 0,0.6875 -0.5625,1.25 -1.25,1.25 -0.6875,0 -1.25,-0.5625 -1.25,-1.25 z m 6.25,0 c 0,-0.6875 0.5625,-1.25 1.25,-1.25 0.6875,0 1.25,0.5625 1.25,1.25 0,0.6875 -0.5625,1.25 -1.25,1.25 -0.6875,0 -1.25,-0.5625 -1.25,-1.25 z m -6.25,-6.25 c 0,-0.6875 0.5625,-1.25 1.25,-1.25 0.6875,0 1.25,0.5625 1.25,1.25 0,0.6875 -0.5625,1.25 -1.25,1.25 -0.6875,0 -1.25,-0.5625 -1.25,-1.25 z m 6.25,0 c 0,-0.6875 0.5625,-1.25 1.25,-1.25 0.6875,0 1.25,0.5625 1.25,1.25 0,0.6875 -0.5625,1.25 -1.25,1.25 -0.6875,0 -1.25,-0.5625 -1.25,-1.25 z m -6.25,-6.25 c 0,-0.6875 0.5625,-1.25 1.25,-1.25 0.6875,0 1.25,0.5625 1.25,1.25 0,0.6875 -0.5625,1.25 -1.25,1.25 -0.6875,0 -1.25,-0.5625 -1.25,-1.25 z m 6.25,0 c 0,-0.6875 0.5625,-1.25 1.25,-1.25 0.6875,0 1.25,0.5625 1.25,1.25 0,0.6875 -0.5625,1.25 -1.25,1.25 -0.6875,0 -1.25,-0.5625 -1.25,-1.25 z m -6.25,-6.25 c 0,-0.6875 0.5625,-1.25 1.25,-1.25 0.6875,0 1.25,0.5625 1.25,1.25 0,0.6875 -0.5625,1.25 -1.25,1.25 -0.6875,0 -1.25,-0.5625 -1.25,-1.25 z m 6.25,0 c 0,-0.6875 0.5625,-1.25 1.25,-1.25 0.6875,0 1.25,0.5625 1.25,1.25 0,0.6875 -0.5625,1.25 -1.25,1.25 -0.6875,0 -1.25,-0.5625 -1.25,-1.25 z m -6.25,-6.25 c 0,-0.6875 0.5625,-1.25 1.25,-1.25 0.6875,0 1.25,0.5625 1.25,1.25 0,0.6875 -0.5625,1.25 -1.25,1.25 -0.6875,0 -1.25,-0.5625 -1.25,-1.25 z m 6.25,0 c 0,-0.6875 0.5625,-1.25 1.25,-1.25 0.6875,0 1.25,0.5625 1.25,1.25 0,0.6875 -0.5625,1.25 -1.25,1.25 -0.6875,0 -1.25,-0.5625 -1.25,-1.25 z"
       id="path7319"
       inkscape:connector-curvature="0"
       sodipodi:nodetypes="ssssssssssssssssssssssssssssssssssssssssssssssssssssssssssssssssssssssssssssssssssssssssss" />
  </g>
  <g
     inkscape:groupmode="layer"
     id="layer28"
     inkscape:label="Нижние канты"
     style="display:inline"
     transform="translate(0.27418518,-17.346848)"
     sodipodi:insensitive="true">
    <path
       style="display:inline;fill:#000000;fill-opacity:1"
       d="m 53.55979,242.93865 c -1.92549,-0.2878 -7.60327,0.63314 -2.865699,1.48867 2.762316,1.2989 6.703952,2.52126 11.243616,1.3082 l 28.680677,0 c 0.4449,-2.70814 -5.219342,-0.83343 -7.467474,-1.34179 l -27.52862,0 c -0.460325,-0.65704 -1.204902,-1.39385 -2.0625,-1.45508 z m 130.78906,0.34961 c -2.0227,-0.70656 -6.90131,0.95336 -2.36765,1.4496 3.81586,1.5244 8.55195,0.80937 12.68998,2.0195 1.98002,1.66453 9.97109,1.55889 9.81221,-0.57013 -5.32336,0.6876 -9.77037,-1.73705 -14.90646,-1.45645 -2.51688,0.73774 -3.11348,-1.32123 -5.22808,-1.44252 z"
       id="path7357"
       inkscape:connector-curvature="0"
       sodipodi:nodetypes="ccccccccccccc" />
  </g>
</svg>
